<?xml version="1.0" standalone="no"?>
<!DOCTYPE svg PUBLIC "-//W3C//DTD SVG 20010904//EN"
 "http://www.w3.org/TR/2001/REC-SVG-20010904/DTD/svg10.dtd">
<svg version="1.0" xmlns="http://www.w3.org/2000/svg"
 width="64.000000pt" height="64.000000pt" viewBox="0 0 64.000000 64.000000"
 preserveAspectRatio="xMidYMid meet">

<g transform="translate(0.000000,64.000000) scale(0.100000,-0.100000)"
fill="#000000" stroke="none">
<path d="M32 622 c-15 -15 -20 -42 -26 -121 -6 -90 -5 -107 12 -139 10 -21 32
-46 49 -57 35 -23 53 -64 53 -121 1 -108 45 -173 121 -181 55 -5 104 23 125
72 16 39 19 105 4 105 -5 0 -10 -21 -10 -46 0 -39 -5 -51 -34 -80 -24 -24 -43
-34 -65 -34 -47 0 -91 27 -107 65 -19 45 -19 135 0 135 9 0 15 -19 19 -62 5
-51 10 -67 32 -85 32 -28 65 -29 96 -4 22 17 24 29 29 124 5 94 8 109 29 131
45 48 131 43 165 -9 8 -12 18 -38 21 -59 6 -29 4 -36 -8 -36 -10 0 -18 13 -23
35 -13 71 -93 96 -136 44 -19 -23 -25 -99 -8 -99 6 0 10 18 10 40 0 50 35 79
78 64 32 -11 58 -84 32 -92 -23 -8 -59 -49 -66 -76 -26 -105 105 -178 181
-101 47 46 45 109 -5 155 -20 19 -32 42 -36 71 -8 51 -54 104 -99 115 -39 10
-103 -15 -129 -49 -17 -23 -22 -46 -24 -125 -4 -104 -16 -132 -57 -132 -40 0
-58 23 -63 83 -5 62 20 132 51 142 9 4 17 11 17 16 0 12 -1 12 -43 -6 -49 -20
-86 -19 -125 5 -46 28 -73 76 -70 125 2 32 7 41 25 43 18 3 22 -3 28 -40 10
-58 38 -88 85 -88 45 0 80 33 80 76 0 38 13 57 36 52 25 -4 30 -55 10 -103
-19 -44 -19 -45 -7 -45 5 0 16 18 25 41 13 31 15 59 10 122 -3 45 -10 94 -16
110 -12 30 -44 43 -84 33 -32 -8 -30 -46 4 -61 27 -12 29 -48 7 -131 -16 -62
-26 -74 -66 -74 -40 0 -58 21 -69 79 -16 85 -13 118 10 124 11 3 23 12 26 21
16 41 -59 63 -94 28z m28 -62 c0 -47 -3 -60 -15 -60 -11 0 -15 12 -15 48 0 40
12 72 27 72 2 0 3 -27 3 -60z m50 45 c0 -8 -7 -15 -15 -15 -8 0 -15 7 -15 15
0 8 7 15 15 15 8 0 15 -7 15 -15z m130 0 c0 -8 -7 -15 -15 -15 -8 0 -15 7 -15
15 0 8 7 15 15 15 8 0 15 -7 15 -15z m50 -62 c0 -32 -4 -43 -15 -43 -12 0 -15
13 -15 63 1 57 2 60 15 43 8 -11 15 -39 15 -63z m-101 -289 c-14 -17 -41 -18
-57 -2 -20 20 -14 24 28 20 33 -3 39 -7 29 -18z m402 -83 c20 -20 29 -39 29
-61 0 -43 -47 -90 -90 -90 -43 0 -90 47 -90 90 0 43 47 90 90 90 22 0 41 -9
61 -29z"/>
<path d="M460 116 c0 -9 5 -16 10 -16 6 0 10 4 10 9 0 6 -4 13 -10 16 -5 3
-10 -1 -10 -9z"/>
<path d="M586 121 c-4 -7 -5 -15 -2 -18 9 -9 19 4 14 18 -4 11 -6 11 -12 0z"/>
<path d="M513 106 c4 -13 38 -15 35 -1 -2 5 -11 10 -21 10 -10 1 -16 -3 -14
-9z"/>
</g>
</svg>
