<?xml version="1.0" standalone="no"?>
<!DOCTYPE svg PUBLIC "-//W3C//DTD SVG 20010904//EN"
 "http://www.w3.org/TR/2001/REC-SVG-20010904/DTD/svg10.dtd">
<svg version="1.0" xmlns="http://www.w3.org/2000/svg"
 width="64.000000pt" height="64.000000pt" viewBox="0 0 64.000000 64.000000"
 preserveAspectRatio="xMidYMid meet">

<g transform="translate(0.000000,64.000000) scale(0.100000,-0.100000)"
fill="#000000" stroke="none">
<path d="M173 625 c-44 -19 -73 -69 -73 -126 0 -39 -3 -48 -21 -52 -27 -7 -15
-27 16 -27 15 0 26 -7 30 -21 10 -31 125 -142 163 -158 27 -11 37 -11 64 0 38
16 153 127 163 158 4 14 15 21 30 21 31 0 43 20 16 27 -18 4 -21 13 -21 52 0
106 -101 172 -190 126 -27 -14 -33 -14 -60 0 -36 19 -75 19 -117 0z m122 -31
c23 -15 27 -15 50 0 62 40 157 2 171 -69 11 -62 0 -75 -67 -75 -58 0 -59 0
-75 -37 l-16 -38 -32 78 c-18 43 -37 79 -42 79 -5 1 -18 -18 -28 -41 l-20 -42
-55 3 -56 3 1 49 c0 42 5 53 32 77 38 34 97 39 137 13z m23 -186 c16 -40 34
-74 40 -76 5 -1 18 17 27 43 l18 45 49 0 49 0 -20 -29 c-31 -43 -120 -120
-147 -127 -32 -8 -81 23 -145 94 l-52 57 57 3 c54 3 59 5 69 33 6 16 14 29 18
29 3 0 20 -32 37 -72z"/>
<path d="M112 190 c-34 -21 -82 -82 -102 -130 -20 -49 -3 -60 96 -60 70 0 85
3 96 19 12 17 26 19 93 19 73 -1 90 3 200 47 134 54 145 60 145 85 0 37 -25
44 -100 28 -50 -11 -72 -12 -80 -4 -7 7 -67 12 -164 13 -135 1 -157 -1 -184
-17z m328 -17 c0 -6 -24 -19 -52 -28 -56 -18 -76 -31 -65 -41 6 -7 105 23 124
38 22 17 153 47 159 36 10 -15 -2 -22 -129 -72 -103 -40 -126 -46 -193 -46
-61 0 -81 -4 -101 -20 -33 -26 -153 -30 -153 -5 0 22 58 111 83 128 32 21 46
22 194 22 95 0 133 -3 133 -12z"/>
</g>
</svg>
