<?xml version="1.0" standalone="no"?>
<!DOCTYPE svg PUBLIC "-//W3C//DTD SVG 20010904//EN"
 "http://www.w3.org/TR/2001/REC-SVG-20010904/DTD/svg10.dtd">
<svg version="1.0" xmlns="http://www.w3.org/2000/svg"
 width="64.000000pt" height="64.000000pt" viewBox="0 0 64.000000 64.000000"
 preserveAspectRatio="xMidYMid meet">

<g transform="translate(0.000000,64.000000) scale(0.100000,-0.100000)"
fill="#000000" stroke="none">
<path d="M56 589 c-33 -26 -34 -59 -1 -133 26 -59 60 -80 94 -59 38 24 14 86
-38 98 -48 10 -47 65 2 65 29 0 56 -18 72 -51 14 -26 14 -40 4 -102 l-12 -73
38 -84 c28 -62 39 -102 43 -152 5 -71 22 -95 22 -30 -1 58 -17 121 -52 194
-31 65 -31 70 -22 137 12 85 3 122 -37 155 -34 29 -66 33 -94 12 -14 -10 -17
-21 -12 -52 6 -38 6 -38 -8 -14 -26 46 4 90 59 90 17 0 39 -7 49 -14 16 -12
24 -12 55 1 48 20 156 20 204 0 31 -13 39 -13 55 -1 10 7 32 14 49 14 55 0 85
-44 59 -90 -14 -24 -14 -24 -8 14 5 31 2 42 -12 52 -28 21 -60 17 -94 -12 -40
-33 -49 -70 -37 -155 9 -67 9 -72 -22 -137 -35 -73 -51 -136 -52 -194 0 -65
17 -41 22 30 4 50 15 90 43 152 l38 84 -12 73 c-10 62 -10 76 4 102 16 33 43
51 72 51 49 0 50 -55 2 -65 -52 -12 -76 -74 -38 -98 34 -21 68 0 94 59 33 74
32 107 -1 133 -30 24 -68 27 -104 8 -21 -11 -32 -11 -64 0 -21 7 -64 13 -96
13 -32 0 -75 -6 -96 -13 -32 -11 -43 -11 -64 0 -36 19 -74 16 -104 -8z m76
-126 c20 -18 24 -48 8 -58 -16 -10 -60 23 -60 44 0 34 23 41 52 14z m426 -10
c2 -14 -5 -27 -22 -38 -42 -28 -64 8 -29 47 21 24 47 19 51 -9z"/>
<path d="M270 541 c-23 -6 -25 -11 -26 -76 0 -39 -4 -80 -8 -92 -4 -13 3 -49
19 -95 18 -48 29 -103 32 -161 3 -48 10 -87 16 -87 17 0 0 162 -24 231 -17 49
-23 88 -23 161 l-1 98 33 6 c17 3 47 3 65 0 l32 -6 -1 -98 c0 -73 -6 -112 -23
-161 -24 -69 -41 -231 -24 -231 6 0 13 39 15 87 4 54 14 110 27 144 23 61 24
70 19 194 -3 75 -4 79 -28 86 -32 9 -68 9 -100 0z"/>
</g>
</svg>
