<?xml version="1.0" standalone="no"?>
<!DOCTYPE svg PUBLIC "-//W3C//DTD SVG 20010904//EN"
 "http://www.w3.org/TR/2001/REC-SVG-20010904/DTD/svg10.dtd">
<svg version="1.0" xmlns="http://www.w3.org/2000/svg"
 width="64.000000pt" height="64.000000pt" viewBox="0 0 64.000000 64.000000"
 preserveAspectRatio="xMidYMid meet">

<g transform="translate(0.000000,64.000000) scale(0.100000,-0.100000)"
fill="#000000" stroke="none">
<path d="M252 620 c-33 -20 -86 -115 -75 -133 8 -13 33 14 33 34 0 10 14 34
31 54 25 28 38 35 68 35 67 0 83 -45 27 -79 -43 -27 -62 -55 -71 -109 -4 -23
-11 -45 -17 -48 -5 -4 -17 -22 -25 -41 -13 -33 -15 -34 -36 -20 -19 13 -28 29
-44 86 -3 10 -7 11 -14 4 -20 -20 1 -71 43 -107 l40 -35 -4 -130 -4 -131 138
0 138 0 17 27 c12 17 18 46 18 79 0 60 -20 95 -78 133 -26 17 -37 32 -37 49 0
14 -12 34 -30 50 -31 27 -40 62 -17 62 16 0 47 32 51 52 2 7 6 24 10 38 9 36
-24 122 -54 137 -36 18 -70 16 -108 -7z m128 -149 c-9 -36 -14 -41 -40 -41
-27 0 -29 -2 -26 -34 1 -21 14 -48 34 -70 36 -41 36 -40 22 -66 -9 -17 -6 -21
17 -26 67 -17 103 -64 103 -134 0 -41 0 -41 -22 -26 -12 9 -32 16 -44 16 -11
0 -40 14 -62 30 -41 30 -42 31 -42 90 0 33 -4 60 -10 60 -6 0 -10 -29 -10 -68
l0 -68 50 -37 c27 -20 60 -37 73 -37 30 0 40 -10 26 -27 -18 -21 -47 -16 -108
19 -100 56 -101 57 -101 171 0 91 2 101 25 129 15 18 25 42 25 62 0 38 22 71
64 97 36 22 41 15 26 -40z m-50 -447 c0 -2 -22 -4 -50 -4 -46 0 -50 2 -50 23
0 13 3 26 6 29 5 6 94 -40 94 -48z"/>
<path d="M140 450 c0 -5 5 -10 10 -10 6 0 10 5 10 10 0 6 -4 10 -10 10 -5 0
-10 -4 -10 -10z"/>
</g>
</svg>
