<?xml version="1.0" standalone="no"?>
<!DOCTYPE svg PUBLIC "-//W3C//DTD SVG 20010904//EN"
 "http://www.w3.org/TR/2001/REC-SVG-20010904/DTD/svg10.dtd">
<svg version="1.0" xmlns="http://www.w3.org/2000/svg"
 width="64.000000pt" height="64.000000pt" viewBox="0 0 64.000000 64.000000"
 preserveAspectRatio="xMidYMid meet">

<g transform="translate(0.000000,64.000000) scale(0.100000,-0.100000)"
fill="#000000" stroke="none">
<path d="M399 605 c-15 -8 -36 -30 -47 -49 -17 -28 -24 -33 -47 -29 -21 4 -27
1 -32 -16 -4 -16 -11 -19 -28 -15 -17 4 -32 -2 -56 -25 -17 -17 -36 -31 -41
-31 -5 0 -8 -12 -6 -27 2 -22 9 -29 29 -31 22 -3 28 -9 33 -42 8 -50 45 -80
98 -80 52 0 90 23 119 72 13 22 30 45 38 51 83 70 97 94 92 147 -8 70 -88 110
-152 75z m106 -30 c47 -46 32 -117 -33 -157 -19 -11 -47 -43 -64 -70 -35 -57
-53 -68 -107 -68 -65 0 -97 57 -71 126 14 35 2 46 -17 17 -17 -26 -53 -31 -53
-8 0 8 7 15 15 15 8 0 19 8 24 19 27 49 81 21 81 -43 1 -26 2 -29 13 -15 8 11
18 14 32 8 29 -11 55 -11 55 1 0 6 -9 10 -20 10 -29 0 -70 44 -70 75 0 14 5
25 10 25 6 0 10 -8 10 -18 0 -11 9 -27 20 -37 22 -20 26 -14 9 17 -9 16 -7 24
10 42 12 12 21 27 21 33 0 20 52 53 82 53 17 0 39 -10 53 -25z"/>
<path d="M27 413 c-4 -3 -7 -30 -7 -60 0 -74 44 -169 99 -213 37 -30 41 -38
41 -77 0 -24 5 -43 10 -43 6 0 10 22 10 49 0 47 -3 51 -40 78 -53 37 -100 133
-100 203 0 36 4 50 14 50 15 0 26 -21 26 -51 0 -10 5 -19 10 -19 13 0 13 33
-2 65 -11 24 -45 34 -61 18z"/>
<path d="M552 395 c-15 -32 -16 -65 -2 -65 6 0 10 9 10 19 0 30 11 51 26 51
10 0 14 -14 14 -50 0 -70 -47 -165 -100 -204 -37 -28 -40 -33 -40 -78 0 -26 5
-48 10 -48 6 0 10 19 10 43 0 39 4 47 41 77 59 47 101 142 97 218 -3 53 -5 57
-29 60 -19 2 -28 -3 -37 -23z"/>
<path d="M103 309 c-13 -5 -23 -12 -23 -17 0 -4 23 -30 50 -57 57 -56 69 -41
13 17 -29 30 -33 38 -19 38 17 0 56 -28 126 -92 28 -25 30 -31 30 -102 0 -44
4 -76 10 -76 6 0 10 31 10 73 0 54 -5 80 -20 105 -11 17 -24 32 -30 32 -5 0
-27 15 -47 34 -52 45 -74 55 -100 45z"/>
<path d="M450 275 c-28 -25 -55 -45 -60 -45 -6 0 -19 -15 -30 -32 -15 -25 -20
-51 -20 -105 0 -42 4 -73 10 -73 6 0 10 32 10 76 0 71 2 77 30 102 70 64 109
92 126 92 14 0 8 -10 -25 -44 -24 -24 -39 -46 -34 -49 5 -4 32 16 59 44 47 48
48 51 30 65 -30 21 -41 18 -96 -31z"/>
</g>
</svg>
