<?xml version="1.0" encoding="utf-8"?>
<!-- Generator: Adobe Illustrator 22.0.0, SVG Export Plug-In . SVG Version: 6.00 Build 0)  -->
<svg version="1.1" id="Camada_1" xmlns="http://www.w3.org/2000/svg" xmlns:xlink="http://www.w3.org/1999/xlink" x="0px" y="0px"
	 viewBox="0 0 750 500" style="enable-background:new 0 0 750 500;" xml:space="preserve">
<style type="text/css">
	.st0{fill:#92E3A9;}
	.st1{opacity:0.7;fill:#FFFFFF;enable-background:new    ;}
	.st2{fill:#263238;}
	.st3{fill:#969696;}
	.st4{fill:#FFFFFF;}
	.st5{opacity:0.3;}
	.st6{fill:#725020;}
	.st7{fill:#AF7931;}
	.st8{fill:#AA7133;}
</style>
<g id="freepik--background-simple--inject-21">
	<path class="st0" d="M713.1,133.5c0,0-47.2-76-143.2-71.5c-118.1,5.4-98.1,31-223.6,38.4S140.5,47.2,65.9,104
		s-78.2,210.3-4.4,284.9s185.2,5.1,259.8,13.3s234.7,36.9,324,12.5S759.6,197,713.1,133.5z"/>
	<path class="st1" d="M713.1,133.5c0,0-47.2-76-143.2-71.5c-118.1,5.4-98.1,31-223.6,38.4S140.5,47.2,65.9,104
		s-78.2,210.3-4.4,284.9s185.2,5.1,259.8,13.3s234.7,36.9,324,12.5S759.6,197,713.1,133.5z"/>
</g>
<g id="freepik--Negatoscope--inject-21">
	<path class="st2" d="M601.1,297.1H429.7c-0.3,0-0.5-0.2-0.5-0.5V103.3c0-0.3,0.2-0.5,0.5-0.5h171.4c0.3,0,0.5,0.2,0.5,0.5v193.4
		C601.6,296.9,601.3,297.1,601.1,297.1z M430.2,296.1h170.4V103.8H430.2V296.1z"/>
	<path class="st2" d="M595.5,297.1H429.7c-0.3,0-0.5-0.2-0.5-0.5V103.3c0-0.3,0.2-0.5,0.5-0.5h165.8c0.3,0,0.5,0.2,0.5,0.5v193.4
		C596,296.9,595.8,297.1,595.5,297.1z M430.2,296.1H595V103.8H430.2V296.1z"/>
	<rect x="437.7" y="114.5" class="st2" width="142.5" height="165.5"/>
	<path class="st2" d="M580.7,280.5H437.2V114h143.5V280.5z M438.2,279.5h141.5V115H438.2V279.5z"/>
	<path class="st3" d="M448.5,278.5c1.8,0.3,4.1-0.8,4.1-1.8s-0.3-13,0.8-14.8s3.3-7.4,3.3-7.4s3.8,11.2,3.8,12.5
		c0,0.9,0.5,8.5,0.8,13h34.4c-0.6-7.3-1.8-24.4-2-27.8c-0.3-4.3-8.7-21.1-8.7-21.1l-4.1-7.6c0,0,2-13,2.5-17.1s5.6-24.7,6.1-33.6
		s-2-30.3-2-30.3l-4.6-27.9h-39l11.8,35.5c0,0-2,30.1-0.3,42.1s-1.3,39-1.3,39S443.6,247,443.6,248s-0.8,18.4-0.5,21.7
		S446.7,278.2,448.5,278.5z"/>
	<path class="st2" d="M496.2,280.5h-35.4V280c-0.4-5.5-0.8-12.2-0.8-13s-1.9-6.8-3.4-11.1c-0.7,1.8-2.1,4.9-2.8,6.2
		c-0.3,0.6-0.8,3.1-0.7,13.9v0.6c0,0.5-0.3,0.9-0.6,1.2c-1.1,0.9-2.6,1.3-4,1.1c-2.2-0.3-5.3-6-5.5-9.4c-0.2-2.5,0.2-13,0.4-18.6
		c0.1-1.7,0.1-2.9,0.1-3.1c0-1.1,7.3-12.1,10.5-17c0.2-2,3-27.4,1.3-38.8c-1.7-11.6,0.1-40.2,0.2-42.1l-12-36.1h40l4.6,28.3
		c0,0.2,2.5,21.6,2,30.4c-0.3,6-2.7,17-4.4,25c-0.9,4.1-1.5,7.3-1.7,8.6c-0.5,3.8-2.3,15.4-2.5,16.9l4,7.5c0.4,0.7,8.5,17,8.7,21.4
		c0.2,3.2,1.4,18.8,2,27.8L496.2,280.5z M461.7,279.5h33.4c-0.7-9.1-1.8-24.1-2-27.2c-0.3-4.2-8.5-20.8-8.6-21l-4.1-7.8v-0.2
		c0-0.1,2-13,2.5-17.1c0.2-1.4,0.9-4.6,1.7-8.7c1.7-8,4-19,4.4-24.9c0.5-8.8-2-30-2-30.2l-4.5-27.4h-37.8l11.7,35v0.1
		c0,0.3-2,30.2-0.3,41.9s-1.2,38.9-1.3,39.1v0.1l-0.1,0.1c-3.9,5.9-10.2,15.6-10.4,16.6c0,0.2,0,1.4-0.1,3.1
		c-0.2,5.2-0.6,16-0.4,18.5c0.3,3.3,3.2,8.3,4.7,8.5l0,0c1.1,0.1,2.3-0.2,3.2-0.9c0.2-0.1,0.3-0.3,0.3-0.4v-0.6
		c-0.1-8.6,0.2-13.3,0.8-14.5c1-1.7,3.3-7.3,3.3-7.3l0.5-1.2l0.4,1.3c0.4,1.1,3.9,11.3,3.9,12.7C461,267.6,461.2,272.1,461.7,279.5z
		"/>
	<path class="st3" d="M523.1,280H546c-0.5-6.9-2.3-29.8-2-32.9c0.1-2.5,0.3-5,0.8-7.4c0.5-2.2,14-62.3,14.3-65s6.9-30.4,6.9-32.9
		c0-1.6,2.5-17.2,4.1-27.3h-36l1.7,10.3c0,0-7.1,28.3-6,43.6s-0.3,49.1-0.3,55.1s-2.5,15.6-2.5,15.6s-6,10.7-6,14
		c0,3.3,2.2,19.2,2.2,20.6L523.1,280z"/>
	<path class="st2" d="M546.5,280.5h-23.9v-6.8c0-0.5-0.3-3.3-0.7-6.6c-0.7-5.3-1.5-11.9-1.5-13.9c0-3.3,5.5-13.2,6.1-14.2
		c0.2-0.8,2.4-9.8,2.4-15.4c0-1.5,0.1-4.7,0.2-8.8c0.3-13,0.9-34.8,0.1-46.3c-1.1-14.8,5.5-41.8,6-43.7l-1.7-10.8h37.1l-0.1,0.6
		c-2.6,16.3-4.1,26-4.1,27.2c0,1.4-2,10.5-4,19.2c-1.4,6.5-2.8,12.6-2.9,13.7c-0.3,3.1-14.2,64.6-14.3,65.1
		c-0.4,1.7-0.6,3.5-0.7,5.2c0,0.6-0.1,1.3-0.2,2.1c-0.2,3,1.5,25.8,2,32.8L546.5,280.5z M523.6,279.5h21.8c-0.6-7.5-2.2-29.4-2-32.4
		c0.1-0.8,0.1-1.5,0.2-2.1c0.1-1.8,0.3-3.6,0.7-5.4c0.1-0.5,14-62.1,14.3-64.9c0.1-1.2,1.4-7.1,2.9-13.8c1.8-7.9,3.9-17.7,3.9-19
		c0-1.6,2.2-15.3,4-26.8h-34.8l1.6,9.8v0.1c-0.1,0.3-7.1,28.3-6,43.5c0.8,11.6,0.3,33.4-0.1,46.4c-0.1,4.1-0.2,7.3-0.2,8.8
		c0,6-2.4,15.4-2.5,15.8v0.1c-0.1,0.1-6,10.6-6,13.7c0,2,0.8,8.6,1.4,13.8c0.5,3.8,0.8,6.2,0.8,6.7L523.6,279.5z"/>
	<path class="st4" d="M467.9,204.1l0.3-56.2l-0.8-33.4h-7.2l2.8,34.9l-4.3,61.6c0,0-2.9,8.6-2,10.3c0.6,1.4,2.2,2.1,3.7,1.5
		c0.2-0.1,0.4-0.2,0.6-0.4c1.4-1.1,4.6-2,6.6-2.9s3.4-0.3,2.6-3.1S467.9,204.1,467.9,204.1z"/>
	<path class="st4" d="M449.1,254.3c0.6-1.1,3.1-6.6,5.1-8.8s2.6-3.7,4.8-2.6s2.6,6.6,3.1,12.3c0.6,5.7,1.7,7.7,1.7,7.7
		c0.5,1.6,0.8,3.2,0.9,4.9c0,2,0.4,8.6,0.5,12.3h3.8c0.1-4.1,0.3-12.6,0.3-13.7c-0.2-1.2-0.6-2.4-1.3-3.5c0.2-1.3,0.2-2.7,0.2-4
		c-0.2-1.1-2.5-7.2-2.9-10s-0.8-9.4,1.1-8.4s6,12.1,6.5,15.1s-0.5,5.9,0,7.2c0.3,0.7,0.6,1.4,1.1,2.1c-0.3,1.1-0.4,2.2-0.3,3.3
		c0.2,1.6,0.6,4.6,0.6,6.2c0.2,1.9,0.4,3.8,0.8,5.8h2.2c0.3-4,1-13,1-13.7c0-1-0.3-3.2-0.3-3.2c0.6-1.3,0.6-2.7,0-4
		c-1-2.1-3.2-9.1-4.1-12s-2.9-8.3-1-6.9s6,11.2,6.7,12.9s0.2,4.8,1,5.9l0.8,1.1c-0.3,0.8-0.2,1.8,0.2,2.5c0.6,1.4,0.8,4.9,1,5.9
		c0.1,0.7,1,7.8,1.5,11.3h3.5c-0.7-3.8-2.3-12.1-2.3-13.1c0-1.3,0.3-5.4,0.3-6.5c-0.1-1-0.5-2-1-2.9c0.2-0.9,0-1.8-0.5-2.6
		c-0.8-1.3-1.6-2.6-1.6-2.6s-4-8.3-4.5-10s0.3-2.9,1.4-1.9s4.5,7.8,5.3,9.6c0.5,1.2,0.9,2.5,1.1,3.8l0.3,1c0.2,1.2,0.5,2.3,1.1,3.3
		c1,1.8,2.4,5.3,2.4,5.3s1.9,6.9,2.2,8.3s0.3,9.2,1.1,7.8s0.8-9.6,0.8-9.6s-1.3-6-1.8-9.2s-1.6-9.1-2.2-10.4s-2.9-5.4-3.7-6.9
		s-3.5-6.5-3.7-7.2s-0.8-3-1.9-3.8c-0.7-0.6-1.5-1.1-2.4-1.3c-1-0.1-0.2-1.2-0.7-3.7c0,0-2.6-5.7-6.6-6s-12.8,4.3-12.3,7.7
		s4.9,4.3,4.9,4.3l-6.3,3.4c0,0-3.4,0-4.3,1.7s-7.4,12.3-7.4,14.3S448.5,255.5,449.1,254.3z"/>
	<path class="st4" d="M552.5,114.5l2.1,11.7c0,0-6.3,34.6-5.2,34s11-17.3,11.5-18.6c0.4-1.1,2.1-19.5,2.7-27L552.5,114.5
		L552.5,114.5z"/>
	<path class="st4" d="M561.5,144c0,0-10.2,17-11,18.6c-1,2.5-1.8,5-2.2,7.7c-0.3,1.9-5.5,42.2-5.5,42.2l0.5,18.1
		c0,0,8-49.6,9.3-54.9s3.8-14.8,4.9-18.4S561.5,144,561.5,144z"/>
	<path class="st4" d="M548.6,162.7c0,0-5.2,34.6-5.8,39c-0.6,4.9-0.7,9.9-0.5,14.8c0.3,2.2,1.4,19.8,0.5,20.9c-0.9,1-1.8,2-2.7,3
		c0,0,1.1,4.4,0.5,5.8s-3,1.6-5.2,1.4s-4.7,0.3-4.4-1.4s2.2-6,1.9-8.2s-1.9-1.9,0.3-5.2s3.8-10.1,3.8-10.1s3.8-58.7,3.8-59.8
		S547.8,158.3,548.6,162.7z"/>
	<path class="st4" d="M526.9,272.1v6c0,0.6,0.1,1.3,0.3,1.9h4.4c0-2,0.4-4.1,1.1-6c0.5-1.1,2.8,3.8,2.8,4.9c0,0.3-0.1,0.7-0.2,1h9
		c0.4-1.5,1.7-7.2,0.7-11.7c-1.1-4.9-2.5-14.3-2.5-14.3l-1.9-4.7l-9.9-0.8c0,0-6,2.5-6,4.4s-1.4,5.2-0.5,6.6
		S526.9,270.7,526.9,272.1z"/>
	<path class="st4" d="M477.6,161.1l5.8-13.3c-1.6-11.3-3.5-24-3.5-24l-2-9.2h-8l6.4,34.3C476.2,148.9,476.9,156.1,477.6,161.1z"/>
	<path class="st4" d="M483.4,148.4l-5.2,18c-0.1,7.2-3.8,39.8-3.8,39.8s-3.1,11.1-2.9,12.5s4.3,1.4,5.4,2s2.6-4.9,2.6-6
		s4-42.5,4.3-44.8s1.7-2.3,1.7-4.8C485.6,164,484.6,156.6,483.4,148.4z"/>
	<rect x="555.1" y="270.7" class="st4" width="15.7" height="1"/>
	<rect x="555.1" y="266.9" class="st4" width="15.7" height="1"/>
	<rect x="555.1" y="263.1" class="st4" width="15.7" height="1"/>
	<rect x="492.7" y="127.3" class="st4" width="15.7" height="1"/>
	<rect x="492.7" y="123.5" class="st4" width="15.7" height="1"/>
	<rect x="492.7" y="119.7" class="st4" width="15.7" height="1"/>
</g>
<g id="freepik--table-2--inject-21">
	<polygon class="st4" points="486.6,381.1 486.6,440.6 495,440.6 495,398.4 704.5,398.4 704.5,440.6 713.1,440.6 713.1,381.1 	"/>
	<path class="st2" d="M713.1,441.1h-8.6c-0.3,0-0.5-0.2-0.5-0.5v-41.7H495.5v41.7c0,0.3-0.2,0.5-0.5,0.5h-8.4
		c-0.3,0-0.5-0.2-0.5-0.5v-59.4c0-0.3,0.2-0.5,0.5-0.5h226.5c0.3,0,0.5,0.2,0.5,0.5v59.4C713.6,440.9,713.4,441.1,713.1,441.1z
		 M705,440.1h7.6v-58.4H487.1v58.4h7.4v-41.7c0-0.3,0.2-0.5,0.5-0.5h209.5c0.3,0,0.5,0.2,0.5,0.5V440.1z"/>
	<polygon class="st4" points="484.2,381.1 484.2,440.6 492.6,440.6 492.6,398.4 702.1,398.4 702.1,440.6 710.7,440.6 710.7,381.1 	
		"/>
	<path class="st2" d="M710.7,441.1h-8.6c-0.3,0-0.5-0.2-0.5-0.5v-41.7H493.1v41.7c0,0.3-0.2,0.5-0.5,0.5h-8.4
		c-0.3,0-0.5-0.2-0.5-0.5v-59.4c0-0.3,0.2-0.5,0.5-0.5h226.5c0.3,0,0.5,0.2,0.5,0.5v59.4C711.2,440.9,711,441.1,710.7,441.1z
		 M702.6,440.1h7.6v-58.4H484.7v58.4h7.4v-41.7c0-0.3,0.2-0.5,0.5-0.5h209.5c0.3,0,0.5,0.2,0.5,0.5V440.1z"/>
	<rect x="486.6" y="381.1" class="st4" width="226.5" height="22.6"/>
	<path class="st2" d="M713.1,404.2H486.6c-0.3,0-0.5-0.2-0.5-0.5v-22.6c0-0.3,0.2-0.5,0.5-0.5h226.5c0.3,0,0.5,0.2,0.5,0.5v22.6
		C713.6,404,713.4,404.2,713.1,404.2z M487.1,403.2h225.5v-21.6H487.1V403.2z"/>
	<rect x="486.6" y="381.1" class="st2" width="226.5" height="4.4"/>
	<path class="st2" d="M713.1,386H486.6c-0.3,0-0.5-0.2-0.5-0.5v-4.4c0-0.3,0.2-0.5,0.5-0.5h226.5c0.3,0,0.5,0.2,0.5,0.5v4.4
		C713.6,385.8,713.4,386,713.1,386z M487.1,385h225.5v-3.4H487.1V385z"/>
	<rect x="483.7" y="376.4" class="st4" width="232.2" height="6.6"/>
	<path class="st2" d="M716,383.5H483.7c-0.3,0-0.5-0.2-0.5-0.5v-6.6c0-0.3,0.2-0.5,0.5-0.5H716c0.3,0,0.5,0.2,0.5,0.5v6.6
		C716.5,383.3,716.3,383.5,716,383.5z M484.3,382.5h231.2v-5.6H484.2L484.3,382.5z"/>
	<rect x="461.9" y="402.3" class="st4" width="8.4" height="38.3"/>
	<path class="st2" d="M470.4,441.1H462c-0.3,0-0.5-0.2-0.5-0.5v-38.3c0-0.3,0.2-0.5,0.5-0.5h8.4c0.3,0,0.5,0.2,0.5,0.5v38.3
		C470.9,440.9,470.6,441.1,470.4,441.1z M462.4,440.1h7.4v-37.3h-7.4V440.1z"/>
	<rect x="459.2" y="402.3" class="st4" width="8.4" height="38.3"/>
	<path class="st2" d="M467.6,441.1h-8.4c-0.3,0-0.5-0.2-0.5-0.5v-38.3c0-0.3,0.2-0.5,0.5-0.5h8.4c0.3,0,0.5,0.2,0.5,0.5v38.3
		C468.1,440.9,467.9,441.1,467.6,441.1z M459.7,440.1h7.4v-37.3h-7.4V440.1z"/>
	<rect x="675.7" y="402.3" class="st4" width="8.6" height="38.3"/>
	<path class="st2" d="M684.3,441.1h-8.6c-0.3,0-0.5-0.2-0.5-0.5v-38.3c0-0.3,0.2-0.5,0.5-0.5h8.6c0.3,0,0.5,0.2,0.5,0.5v38.3
		C684.8,440.9,684.6,441.1,684.3,441.1L684.3,441.1z M676.2,440.1h7.6v-37.3h-7.6V440.1z"/>
	<rect x="673" y="402.3" class="st4" width="8.6" height="38.3"/>
	<path class="st2" d="M681.6,441.1H673c-0.3,0-0.5-0.2-0.5-0.5v-38.3c0-0.3,0.2-0.5,0.5-0.5h8.6c0.3,0,0.5,0.2,0.5,0.5v38.3
		C682.1,440.9,681.9,441.1,681.6,441.1L681.6,441.1z M673.5,440.1h7.6v-37.3h-7.6V440.1z"/>
	<rect x="457.8" y="381.1" class="st4" width="226.5" height="22.6"/>
	<path class="st2" d="M684.3,404.2H457.8c-0.3,0-0.5-0.2-0.5-0.5v-22.6c0-0.3,0.2-0.5,0.5-0.5h226.5c0.3,0,0.5,0.2,0.5,0.5v22.6
		C684.8,404,684.6,404.2,684.3,404.2z M458.3,403.2h225.5v-21.6H458.3V403.2z"/>
	<rect x="457.8" y="381.1" class="st2" width="226.5" height="4.4"/>
	<path class="st2" d="M684.3,386H457.8c-0.3,0-0.5-0.2-0.5-0.5v-4.4c0-0.3,0.2-0.5,0.5-0.5h226.5c0.3,0,0.5,0.2,0.5,0.5v4.4
		C684.8,385.8,684.6,386,684.3,386z M458.3,385h225.5v-3.4H458.3V385z"/>
	<rect x="454.9" y="376.4" class="st4" width="232.2" height="6.6"/>
	<path class="st2" d="M687.2,383.5H454.9c-0.3,0-0.5-0.2-0.5-0.5v-6.6c0-0.3,0.2-0.5,0.5-0.5h232.2c0.3,0,0.5,0.2,0.5,0.5v6.6
		C687.7,383.3,687.4,383.5,687.2,383.5z M455.4,382.5h231.2v-5.6H455.4V382.5z"/>
</g>
<g id="freepik--Device--inject-21">
	<rect x="587.9" y="359" class="st4" width="19.9" height="17.8"/>
	<path class="st2" d="M607.8,377.3h-19.9c-0.3,0-0.5-0.2-0.5-0.5V359c0-0.3,0.2-0.5,0.5-0.5h19.9c0.3,0,0.5,0.2,0.5,0.5v17.8
		C608.3,377.1,608,377.3,607.8,377.3z M588.4,376.3h18.9v-16.8h-18.9V376.3z"/>
	<rect x="586.5" y="359" class="st4" width="19.9" height="17.8"/>
	<path class="st2" d="M606.4,377.3h-19.9c-0.3,0-0.5-0.2-0.5-0.5V359c0-0.3,0.2-0.5,0.5-0.5h19.9c0.3,0,0.5,0.2,0.5,0.5v17.8
		C606.9,377.1,606.7,377.3,606.4,377.3z M587,376.3h18.9v-16.8H587V376.3z"/>
	<rect x="576.8" y="375" class="st4" width="31" height="1.9"/>
	<path class="st2" d="M607.8,377.3h-31c-0.3,0-0.5-0.2-0.5-0.5V375c0-0.3,0.2-0.5,0.5-0.5h31c0.3,0,0.5,0.2,0.5,0.5v1.9
		C608.2,377.1,608,377.3,607.8,377.3z M577.3,376.3h30v-0.9h-30V376.3z"/>
	<rect x="549.6" y="287.5" class="st4" width="97" height="74"/>
	<path class="st2" d="M646.7,362h-97c-0.3,0-0.5-0.2-0.5-0.5v-74c0-0.3,0.2-0.5,0.5-0.5h97c0.3,0,0.5,0.2,0.5,0.5v74
		C647.2,361.8,647,362,646.7,362z M550.1,361h96v-73h-96V361z"/>
	<rect x="547" y="287.5" class="st4" width="97" height="74"/>
	<path class="st2" d="M644.1,362H547c-0.3,0-0.5-0.2-0.5-0.5v-74c0-0.3,0.2-0.5,0.5-0.5h97c0.3,0,0.5,0.2,0.5,0.5v74
		C644.6,361.8,644.3,362,644.1,362z M547.5,361h96v-73h-96V361z"/>
	<rect x="551.8" y="291.2" class="st4" width="87.5" height="66.7"/>
	<path class="st2" d="M639.3,358.4h-87.5c-0.3,0-0.5-0.2-0.5-0.5v-66.7c0-0.3,0.2-0.5,0.5-0.5h87.5c0.3,0,0.5,0.2,0.5,0.5v66.7
		C639.8,358.2,639.6,358.4,639.3,358.4z M552.3,357.4h86.5v-65.7h-86.5V357.4z"/>
	<rect x="551.8" y="298.8" class="st4" width="87.5" height="59.1"/>
	<path class="st2" d="M639.3,358.4h-87.5c-0.3,0-0.5-0.2-0.5-0.5v-59.1c0-0.3,0.2-0.5,0.5-0.5h87.5c0.3,0,0.5,0.2,0.5,0.5v59.1
		C639.8,358.2,639.6,358.4,639.3,358.4z M552.3,357.4h86.5v-58.1h-86.5V357.4z"/>
	<path class="st2" d="M604.7,353c-0.3,0-0.5-0.2-0.5-0.5v-47.8c0-0.3,0.2-0.5,0.5-0.5s0.5,0.2,0.5,0.5v47.8
		C605.2,352.8,604.9,353,604.7,353z"/>
	<path class="st2" d="M632.2,305.2h-20.7c-0.3,0-0.5-0.2-0.5-0.5s0.2-0.5,0.5-0.5h20.7c0.3,0,0.5,0.2,0.5,0.5
		S632.5,305.2,632.2,305.2z"/>
	<path class="st2" d="M632.2,309.6h-20.7c-0.3,0-0.5-0.2-0.5-0.5s0.2-0.5,0.5-0.5h20.7c0.3,0,0.5,0.2,0.5,0.5
		S632.5,309.6,632.2,309.6z"/>
	<path class="st2" d="M632.2,314h-20.7c-0.3,0-0.5-0.2-0.5-0.5s0.2-0.5,0.5-0.5h20.7c0.3,0,0.5,0.2,0.5,0.5S632.5,314,632.2,314z"/>
	<path class="st2" d="M632.2,318.3h-20.7c-0.3,0-0.5-0.2-0.5-0.5s0.2-0.5,0.5-0.5h20.7c0.3,0,0.5,0.2,0.5,0.5
		S632.5,318.3,632.2,318.3z"/>
	<path class="st2" d="M632.2,322.7h-20.7c-0.3,0-0.5-0.2-0.5-0.5s0.2-0.5,0.5-0.5h20.7c0.3,0,0.5,0.2,0.5,0.5
		S632.5,322.7,632.2,322.7z"/>
	<path class="st2" d="M632.2,327.1h-20.7c-0.3,0-0.5-0.2-0.5-0.5s0.2-0.5,0.5-0.5h20.7c0.3,0,0.5,0.2,0.5,0.5
		S632.5,327.1,632.2,327.1z"/>
	<path class="st2" d="M632.2,331.5h-20.7c-0.3,0-0.5-0.2-0.5-0.5s0.2-0.5,0.5-0.5h20.7c0.3,0,0.5,0.2,0.5,0.5
		S632.5,331.5,632.2,331.5z"/>
	<path class="st2" d="M632.2,335.9h-20.7c-0.3,0-0.5-0.2-0.5-0.5s0.2-0.5,0.5-0.5h20.7c0.3,0,0.5,0.2,0.5,0.5
		S632.5,335.9,632.2,335.9z"/>
	<path class="st2" d="M632.2,340.3h-20.7c-0.3,0-0.5-0.2-0.5-0.5s0.2-0.5,0.5-0.5h20.7c0.3,0,0.5,0.2,0.5,0.5
		S632.5,340.3,632.2,340.3z"/>
	<path class="st2" d="M632.2,344.6h-20.7c-0.3,0-0.5-0.2-0.5-0.5s0.2-0.5,0.5-0.5h20.7c0.3,0,0.5,0.2,0.5,0.5
		S632.5,344.6,632.2,344.6z"/>
	<path class="st2" d="M632.2,349h-20.7c-0.3,0-0.5-0.2-0.5-0.5s0.2-0.5,0.5-0.5h20.7c0.3,0,0.5,0.2,0.5,0.5S632.5,349,632.2,349z"/>
	<rect x="554.8" y="305.9" class="st4" width="40.7" height="27.9"/>
	<path class="st2" d="M595.5,334.3h-40.7c-0.3,0-0.5-0.2-0.5-0.5v-27.9c0-0.3,0.2-0.5,0.5-0.5h40.7c0.3,0,0.5,0.2,0.5,0.5v27.9
		C596,334.1,595.8,334.3,595.5,334.3z M555.3,333.3H595v-26.9h-39.7V333.3z"/>
	<rect x="527.6" y="373.7" class="st4" width="70.9" height="3.1"/>
	<path class="st2" d="M598.5,377.3h-70.9c-0.3,0-0.5-0.2-0.5-0.5v-3.1c0-0.3,0.2-0.5,0.5-0.5h70.9c0.3,0,0.5,0.2,0.5,0.5v3.1
		C599,377.1,598.8,377.3,598.5,377.3z M528.1,376.3H598v-2.1h-69.9V376.3z"/>
</g>
<g id="freepik--Poster--inject-21">
	<g class="st5">
		<path d="M215.7,286.1l3.6-0.8v20.6c0,2,1.2,4.9,3.2,2.4c0,0,2,2.8,3.2,1.6l2-1.1c0,0,2.4,1,3.5,0.6s3.4-3.5,3.4-3.5
			s0.6,1.7,2.7-0.8s2.4-5.6,2.9-7.7s2.4-13.6,2.9-15.6s0-12.3,0-12.3l-0.4-4.5c0,0,9.1-24.8,10.7-30.7s3.2-12.1,3.8-17.1
			s2.9-15,2.9-15l1-0.4c0,0,0.1,23.7-0.4,26.8s-4.8,8.8-4.4,16.1c0.4,7.3-2.1,19.7-2.8,23.8s-6,18.5-3.8,42
			c1,10.8,2.8,21.4,5.5,31.9H284c0.5-2.6,4.9-25.6,5.2-26.5s4-18.1,4-18.1c0.9,0.2,1.6,0.7,2,1.5c0.5,1.2,6.9,43.1,6.9,43.2h28.2
			c2.9-9.7,6.5-23.2,6.5-35c0-18.1-3.7-40.4-4.7-44.4c-0.8-3.9-1.4-7.7-1.7-11.7c0,0,1.5-6,0-11.2s-2.5-7.2-3.7-12.9
			c-1-5-1.8-10.1-2.3-15.1v-9.7c0,0,4.7,11.4,7,19.4s2.2,12.6,4.7,20.1s7.7,21.3,8.7,24.3s-1.2,8.2-0.3,16.1s2,21.6,3.7,23.6
			s3.7-0.3,3.7-0.3s0.8,4,2.2,4.5s3.5-1,3.5-1c0.1,1.1,1.1,1.9,2.2,1.8c0.3,0,0.5-0.1,0.8-0.3c1.4-0.4,2.5-1.4,3-2.7
			c0,0,3.7,1.5,3.2-3.5s-1.7-11.7-1.7-13.1s0.3-6.2,0.3-6.2s2.5,2,4.5,2.2s4,2.2,5.5,0s0.3-3-2.5-4.7s-3-2.2-5-5.2s-0.3-3.7-4.5-7.4
			s-6.9-5.5-6.9-8.7s3.2-23.3,0.3-37.7s-4.5-18.1-5-20.3s-5-19.1-5-19.1s4-15.6-3-28.8s-16.4-12.1-23.6-15.4s-12.9-4-13.9-5.9
			c-0.7-1.7-1.2-3.6-1.5-5.4c0,0,6.5-8.9,6.7-11.9l0.2-3c0,0,4-1.5,5-9.2s-4.1-6.3-4.1-6.3s0.8-11.3-4.4-18.2S290.8,73,285.6,75
			s-10.5,5.7-11.7,11.7c-0.7,4.4-1,8.9-0.8,13.3c0,0-4,0.8-2.8,5.3c0.6,2.5,1.9,4.9,3.6,6.9c0,0,1.2,5.7,2,8.1s5.3,7.7,5.3,7.7
			s0.8,6.1-2,8.1s-9.7,3.6-19.4,6.9s-18.6,11.7-20.6,22.6c-1.2,6.5-1.5,13.2-0.8,19.8l-3.6,23c-2.4,6.3-3.8,13-4,19.8
			c-0.4,11.3-2.4,33.9-2.4,33.9s2.4,1.6-3.2,4.4s-6.1,4.9-6.9,6.9s-1.2,6-2.8,7.3s-6.9,0-6.1,4S215.7,286.1,215.7,286.1z"/>
		<path class="st2" d="M330.7,342.7h-29l-0.1-0.4c-2.2-14.4-6.5-41.9-6.9-43c-0.2-0.5-0.6-0.8-1.1-1c-0.6,2.9-3.6,16.7-3.9,17.6
			s-3.3,17-5.1,26.5l-0.1,0.4H255l-0.1-0.4c-2.7-10.5-4.6-21.2-5.5-31.9c-1.4-13.1-0.3-26.3,3.1-39c0.3-1.3,0.6-2.4,0.7-3.1
			s0.3-1.5,0.4-2.4c1-5.3,2.7-15.2,2.4-21.3c-0.3-5.1,1.6-9.4,3-12.6c0.6-1.2,1-2.4,1.3-3.6c0.5-2.7,0.4-21.9,0.4-26h-0.1
			c-0.4,1.6-2.4,10.2-2.9,14.7c-0.8,5.4-2,10.7-3.5,15.9l-0.4,1.3c-1.5,5.7-9.9,28.7-10.6,30.7l0.4,4.4c0,0.5,0.6,10.5,0,12.5
			c-0.3,1-0.9,4.5-1.5,8s-1.1,6.5-1.4,7.6c-0.1,0.4-0.2,0.9-0.3,1.4c-0.4,2.4-1.3,4.6-2.7,6.5c-1,1.2-1.8,1.7-2.6,1.5
			c-0.2,0-0.3-0.1-0.5-0.2c-0.7,1-2.2,2.8-3.2,3.2s-3-0.2-3.6-0.5l-1.7,1c-0.3,0.3-0.7,0.4-1.1,0.4c-1-0.2-1.8-0.8-2.4-1.6
			c-0.5,0.6-1.2,0.8-1.9,0.6c-1.3-0.5-1.8-2.5-1.8-3.8v-20l-3,0.7c-0.4,0.2-3.5,1.4-5.5,0.3c-0.9-0.5-1.5-1.3-1.6-2.3
			c-0.2-0.8-0.1-1.7,0.4-2.4c0.8-1.1,2.3-1.3,3.7-1.5c0.8,0,1.5-0.2,2.2-0.6c0.9-0.7,1.5-2.8,1.9-4.6c0.2-0.8,0.4-1.7,0.7-2.5
			l0.2-0.5c0.8-2,1.5-4,6.9-6.7c3-1.5,3.4-2.6,3.5-2.9c0-0.3-0.1-0.5-0.3-0.6l-0.2-0.2V262c0-0.2,2-22.7,2.4-33.9
			c0.3-6.8,1.6-13.5,4.1-19.9l3.6-22.9c-0.7-6.6-0.4-13.3,0.8-19.9c1.9-10.4,10.1-19.4,20.9-23c3-1,5.7-1.8,8.1-2.6
			c5.4-1.7,9.2-2.9,11.1-4.2c2.3-1.7,1.9-6.6,1.8-7.5c-0.7-0.8-4.5-5.4-5.3-7.7s-1.8-7.1-2-8c-1.7-2-3-4.4-3.6-7
			c-0.4-1.3-0.3-2.7,0.4-3.9c0.6-0.9,1.4-1.5,2.4-1.8c-0.2-4.4,0.1-8.7,0.8-13c1.3-6.7,7.3-10.3,12-12.1c5.4-2.1,17.7-2.2,23.2,5
			c4.7,6.1,4.7,15.4,4.6,17.9c1-0.1,2,0.2,2.8,0.9c1.3,1.1,1.7,3.2,1.3,6.1c-0.9,6.8-4,8.9-5,9.4l-0.2,2.7c-0.2,2.9-5.8,10.7-6.7,12
			c0.3,1.8,0.7,3.5,1.4,5.1c0.5,1,2.8,1.7,5.7,2.7c2.7,0.9,5.4,1.9,8,3c1.8,0.8,3.7,1.4,5.6,1.9c6,1.7,12.9,3.6,18.2,13.7
			c6.6,12.5,3.4,27.4,3,29c0.4,1.6,4.5,16.9,4.9,19c0.1,0.6,0.3,1.3,0.6,2.2c0.8,2.6,2.2,7.5,4.4,18.2c2.4,11.4,0.8,26.5,0.1,33.7
			c-0.2,2-0.3,3.4-0.3,4.1c0,2.5,1.8,4.1,4.9,6.7l1.9,1.6c2.7,2.4,3.1,3.7,3.4,5c0.2,0.9,0.6,1.8,1.1,2.5l0.3,0.4
			c1.7,2.6,2,3,4.5,4.6l0.1,0.1c1.8,1.1,3,1.9,3.2,3c0.1,0.8-0.1,1.7-0.7,2.3c-1.3,1.9-2.9,1.3-4.3,0.7c-0.5-0.2-1.1-0.4-1.7-0.5
			c-1.4-0.3-2.8-0.9-4-1.8c-0.1,1.4-0.2,4.2-0.2,5.3c0,0.7,0.3,2.7,0.6,5s0.8,5.5,1.1,8.1c0.2,1.8-0.2,3.1-1,3.8
			c-0.7,0.5-1.6,0.6-2.4,0.4c-0.7,1.2-1.8,2.1-3.1,2.6c-0.7,0.4-1.6,0.4-2.4,0c-0.5-0.3-0.8-0.7-1.1-1.2c-1,0.7-2.2,0.9-3.4,0.7
			c-1.3-0.4-2.1-2.7-2.4-4c-0.5,0.4-1.2,0.6-1.8,0.6c-0.8,0-1.5-0.4-2-1c-1.3-1.5-2.1-8.2-3.1-17.5c-0.2-2.3-0.5-4.4-0.7-6.3
			c-0.4-3.6-0.3-7.2,0.2-10.8c0.3-2.3,0.5-4,0.1-5.3s-1.4-3.9-2.6-7.3c-2-5.5-4.5-12.4-6-17c-1.2-3.5-2-7.1-2.7-10.8
			c-0.5-2.8-1.1-5.7-2.1-9.3c-1.6-5.6-4.5-13.1-6-16.9v7.1c0.5,5,1.2,10,2.2,15c0.6,2.7,1.3,5.4,2.3,8.1c0.5,1.4,0.9,2.9,1.5,4.8
			c0.9,3.7,0.9,7.6,0,11.3c0.4,3.9,0.9,7.7,1.7,11.5c1.1,4.4,4.7,26.9,4.7,44.5c0,11.6-3.5,24.9-6.6,35.1L330.7,342.7z M302.6,341.7
			H330c3-10.1,6.4-23.1,6.4-34.5c0-17.5-3.6-39.9-4.7-44.3c-0.8-3.9-1.4-7.8-1.8-11.7v-0.1V251c0-0.1,1.4-5.9,0-10.9
			c-0.5-1.9-1-3.3-1.5-4.7c-0.9-2.7-1.7-5.4-2.3-8.2c-1-5-1.8-10.1-2.3-15.2v-12.2l1,2.3c0,0.1,4.7,11.5,7,19.4
			c1,3.6,1.6,6.5,2.1,9.4c0.6,3.6,1.5,7.2,2.6,10.7c1.5,4.6,4,11.4,6,17c1.3,3.5,2.3,6.2,2.6,7.4c0.5,1.5,0.3,3.3,0,5.7
			c-0.5,3.5-0.6,7-0.2,10.5c0.2,1.9,0.5,4,0.7,6.3c0.7,6.9,1.7,15.6,2.9,17c0.3,0.4,0.7,0.6,1.2,0.6l0,0c0.7-0.1,1.3-0.4,1.7-0.9
			l0.7-0.8l0.2,1c0.3,1.5,1.1,3.8,1.9,4.1c1,0.3,2.5-0.5,3-0.9l0.6-0.5l0.2,0.8c0.1,0.5,0.4,0.9,0.8,1.2c0.5,0.2,1,0.2,1.5,0
			c1.2-0.4,2.2-1.3,2.7-2.4l0.2-0.5l0.5,0.2c0.6,0.2,1.3,0.2,1.9-0.1c0.6-0.4,0.8-1.4,0.6-2.9c-0.3-2.5-0.7-5.6-1.1-8
			s-0.7-4.4-0.7-5.1c0-1.5,0.2-6,0.3-6.2v-1l0.8,0.6c0,0,2.4,1.9,4.2,2.1c0.7,0.1,1.3,0.3,1.9,0.6c1.5,0.6,2.3,0.8,3.1-0.4
			c0.4-0.4,0.6-1,0.5-1.6c-0.1-0.7-1.2-1.4-2.8-2.4l-0.1-0.1c-2.7-1.7-3.1-2.3-4.8-4.9l-0.3-0.4c-0.6-0.9-1-1.8-1.2-2.8
			c-0.3-1.2-0.6-2.3-3.1-4.5l-1.9-1.6c-3.2-2.7-5.3-4.5-5.3-7.4c0-0.7,0.1-2.2,0.4-4.2c0.7-7.2,2.2-22.2-0.1-33.4
			c-2.2-10.6-3.6-15.5-4.4-18.1c-0.3-1-0.5-1.6-0.6-2.3c-0.5-2.2-4.9-18.9-5-19.1V184v-0.1c0-0.2,3.8-15.6-2.9-28.4
			c-5.1-9.7-11.5-11.5-17.6-13.2c-2-0.5-3.9-1.1-5.7-1.9c-2.6-1.1-5.2-2.1-7.9-3c-3.4-1.1-5.6-1.9-6.3-3.2c-0.7-1.8-1.3-3.7-1.5-5.6
			v-0.2l0.1-0.2c1.8-2.4,6.4-9.3,6.6-11.7l0.3-3.3l0.3-0.1c0,0,3.7-1.5,4.6-8.8c0.3-2.6,0-4.4-1-5.2c-0.7-0.6-1.7-0.8-2.5-0.6
			l-0.7,0.2V98c0-0.1,0.7-11.2-4.3-17.8s-17-6.6-22-4.7c-4.5,1.7-10.1,5.1-11.4,11.3c-0.7,4.4-1,8.8-0.8,13.2v0.4l-0.4,0.1
			c-0.9,0.2-1.7,0.8-2.2,1.5c-0.5,1-0.6,2.1-0.2,3.1c0.6,2.5,1.8,4.7,3.5,6.6l0.1,0.1v0.1c0,0.1,1.2,5.7,2,8s5.1,7.5,5.2,7.5
			l0.1,0.1v0.2c0,0.3,0.8,6.4-2.2,8.5c-2,1.4-6,2.7-11.4,4.3c-2.4,0.8-5.1,1.6-8.1,2.6c-10.3,3.4-18.4,12.4-20.3,22.2
			c-1.2,6.5-1.5,13.1-0.8,19.6v0.1l-3.7,23.1c-2.4,6.3-3.8,12.9-4,19.6c-0.4,10.5-2.2,31.1-2.4,33.7c0.3,0.3,0.5,0.8,0.5,1.3
			c-0.1,1.2-1.4,2.5-4,3.8c-5.1,2.5-5.8,4.4-6.4,6.1l-0.2,0.5c-0.3,0.8-0.5,1.6-0.7,2.4c-0.5,2-1.1,4.2-2.3,5.1
			c-0.8,0.5-1.7,0.7-2.6,0.8c-1.2,0.2-2.5,0.4-3,1.1c-0.3,0.5-0.4,1.1-0.2,1.6c0.1,0.7,0.5,1.3,1.1,1.6c1.7,0.9,4.6-0.3,4.7-0.4h0.1
			l4.2-1v21.2c0,1.3,0.5,2.6,1.1,2.8c0.4,0.1,1-0.4,1.3-0.7l0.4-0.5l0.4,0.5c0.5,0.6,1.4,1.7,2.1,1.7c0.1,0,0.3,0,0.4-0.1l0.1-0.1
			l2.2-1.3l0.2,0.1c1,0.5,2.1,0.7,3.1,0.6c0.7-0.3,2.3-2.2,3.1-3.3l0.6-0.8l0.3,0.9l0,0c0,0,0.1,0.2,0.2,0.2s0.6,0,1.6-1.2
			c1.3-1.8,2.2-3.9,2.5-6.1c0.1-0.5,0.2-1,0.3-1.4c0.3-1,0.8-4.3,1.4-7.5c0.6-3.6,1.2-7.1,1.5-8.1c0.4-1.5,0.1-9.3,0-12.2l-0.4-4.6
			v-0.1c0.1-0.2,9.1-24.9,10.6-30.7l0.3-1.3c1.5-5.2,2.6-10.4,3.4-15.7c0.6-5,2.9-15,3-15.1l0.1-0.2l1.9-0.8v0.8
			c0,1,0.1,23.8-0.4,26.9c-0.3,1.3-0.8,2.6-1.4,3.8c-1.4,3.1-3.2,7.3-2.9,12.2c0.4,6.3-1.4,16.2-2.4,21.5c-0.2,1-0.3,1.8-0.4,2.4
			s-0.4,1.8-0.7,3.1c-3.4,12.6-4.4,25.7-3.1,38.7c1,10.6,2.8,21.1,5.4,31.4h28c0.8-4,4.9-25.2,5.1-26.2s3.9-17.9,4-18.1l0.1-0.5
			l0.5,0.1c1,0.2,1.9,0.9,2.4,1.8C296.1,300.1,301.4,333.9,302.6,341.7L302.6,341.7z"/>
		<path class="st4" d="M214.7,286.9L214.7,286.9c1,0.5,2.2-0.1,2.9-1.1c1.1-1.6,6.1-7.5,4.8-7c0.9-1.4,2-3.2,2-3.2s0.9,3.6,0,5.6
			s-2.7,5.7-2,6.8c-0.4,1.2-0.6,2.5-0.7,3.8c0,1.4-0.5,7-0.1,9.3c-0.2,1.3-0.3,2.5-0.4,3.8c0,2,0.7,4.5,2,1.6s1.1-7.9,1.1-7.9
			l-0.3,0.1c0.3-1.2,0.5-2.4,0.5-3.7c0-2,0.4-6.3,0.4-6.3v-0.1c0.4-0.4,0.7-0.9,0.7-1.5c0.2-2,0.6-4,1.1-5.9c0.4-1.1,1.2-2,2.1-2.7
			c-0.2,1.7-0.2,4.1-0.3,4.5s-1.5,2.5-1.2,4.3c0.1,0.5,0.3,1,0.6,1.3c-0.1,0.1-0.1,0.1-0.1,0.2s-1.1,0.3-1.2,2.1
			c0,1.4-0.3,2.8-0.7,4.1c-0.5,1.1-1.5,2.5,0,3.2c-0.7,0.5-1.1,1.2-1.2,2c-0.2,1-0.3,2-0.2,3.1c-0.2,1-0.8,3.6-0.5,4.6
			c0.4,1.2,0.4,3.4,1.7,2.1s1.6-6.4,1.6-6.4s-0.2,0-0.5,0.1c0.1-0.4,0.2-0.8,0.4-1.3c0.6-1.8,1-2.9,0.9-3.5c0-0.1-0.1-0.3-0.1-0.4
			c0.3-0.4,0.5-0.8,0.5-1.3c0.4-1.8,0.1-2.5,0.7-3.4c0.8-1,1.3-2.1,1.5-3.3l0.3-1.7c0.9-1.5,0.5-3.1,0.7-4.8s0.7-5.5,0.7-5.5
			l-0.1-0.1c0.8,0.3,1.7,0.5,2.6,0.6l0,0c0,0,0.5,5.9,0.7,8.1c0,0.7,0.2,1.4,0.4,2c-0.3,0.5-0.5,1.1-0.6,1.8c0,1.6-0.1,3.3-0.4,4.9
			c-0.1,0.5-0.1,1,0,1.5c0,0-0.1,0-0.1,0.1s-0.9,5.8-0.1,6.1s1,0.7,1.6-0.9c0.5-1.1,1-2.3,1.3-3.5l0.1-0.9l-0.5-0.3
			c0.3-0.3,0.3-1,1-3.1c0.7-2,0.9-4.1,0.6-6.2l-0.1-1c-0.2,0-0.4,0-0.6,0c0.2-1.4,0.1-2.9-0.2-4.3c-0.5-2.5-0.7-4-0.7-4.5
			c0.4-0.2,0.7-0.5,0.9-0.9c1.2-2.2-0.2-4.7-0.7-6c0.7-1.3,1.2-2.7,1.6-4.1c1.6-4.5,5.2-14.5,6.3-24.9s2.3-13.8,2.3-13.8
			c1.3-1.9,2-4.2,2-6.6c-0.1-1.1-0.5-2.1-1.2-2.8c0.5-0.3,0.6-0.9,1-1.9c0.7-1.8,1.1-1.8,0.9-5s-2.7-2.5-2.7-2.5
			c-0.2-5.2,0.2-10.5,1.4-15.6c1.8-7.2,4.3-15.4,4.8-19s3.4-15.8,3.4-15.8l5.6-1.1c0,0,2.1,2.4,3.3,4.2c0.2,0.5,0.5,0.9,0.8,1.3
			c0,0,0,0.1,0.1,0.1c-2.3,1.4-3.7,3-3.7,4.9c0,0.7,0.2,1.4,0.6,2c-2.4,1.4-3.5,3.4-3.2,5.6c0.1,0.8,0.4,1.5,0.8,2.2
			c-1.2,1.3-1.7,3-1.4,4.8c0.3,1.4,0.9,2.7,1.8,3.7c-1.5,2.2-1.9,5.1-1,7.6c0.3,0.7,0.6,1.3,1.1,1.8c-0.1,0.1-0.1,0.3-0.2,0.4
			c-0.5,2.2-0.7,4.4-0.6,6.7c-0.5,5.1-0.3,12.4,3.6,15.1c1.8,1.4,4.1,2.2,6.4,2.2c0.6,0,1.3-0.1,1.9-0.2c3.1-0.6,6-2.9,8.1-6.3
			c1.3-2,2.2-5.1,3.2-8.6c1-3.7,2.3-7.4,4-10.9l0.1-0.1l-0.2,8.6h-0.3c-0.7,0-1.3,0.6-1.3,1.3v0.1c0,0.7,0.6,1.3,1.3,1.3h0.3v1.9
			h-0.9c-0.7,0-1.3,0.6-1.3,1.3v0.9c0,0.7,0.6,1.3,1.3,1.3h0.8l-0.1,3.6h-1.3c-0.7,0-1.3,0.6-1.3,1.3v0.9c0,0.7,0.6,1.3,1.3,1.3h1.2
			l-0.1,3.1h-2.1c-0.7,0-1.3,0.6-1.3,1.3v0.9c0,0.7,0.6,1.3,1.3,1.3l0,0h2l-0.1,2.4h-2c-0.7,0-1.3,0.6-1.3,1.3v0.9
			c0,0.7,0.6,1.3,1.3,1.3h1.9v2.3H285c-0.7,0-1.3,0.6-1.3,1.3v0.9c-7.3-5-15.4-6.8-20-3s-5.8,11.6-3.8,14.8s6.6,5,6.8,7.4
			c0,1.6,0.1,3.2,0.3,4.7c-1.8-0.3-4.1-0.3-4.9,1.3c-1.3,2.7,0,6,0,6s-3.3,0.2-2.9,2.7c0.3,1.6,1,3.1,2.1,4.2c0,0,3.6,32,5,44.3
			c0.8,7.9,1.1,15.8,0.8,23.7h8.6c-1.4-9-5.9-59.3-5.9-61.5v-3.5c0,0,3.5-1.3,2.3-3.6s-2.7-2.9-1.9-4.4s3.6-2.9,3.6-2.9
			s-2.8,1.8,0.4,6.2s8,5.4,11,4.4s6.6-6.2,6.6-6.2l1.5-0.4l1.5,0.4c0,0,3.6,5.2,6.6,6.2s7.8,0,11-4.4c2-2.8,1.6-4.5,1.1-5.4
			c0.9,0.5,1.7,1.3,2.3,2.1c0.8,1.5-0.8,2.1-1.9,4.4s2.3,3.6,2.3,3.6v3.5c0,2.1-4.5,52.5-5.9,61.5h8.6c-0.3-7.9-0.1-15.8,0.8-23.7
			c1.3-12.3,5-44.3,5-44.3c1.1-1.2,1.8-2.6,2.1-4.2c0.4-2.5-2.9-2.7-2.9-2.7s1.3-3.3,0-6c-0.7-1.4-2.6-1.5-4.3-1.4
			c0.2-1.5,0.3-3.1,0.2-4.6c0.2-2.4,4.8-4.2,6.8-7.4s0.8-11-3.8-14.8s-12.7-2-19.9,2.9v-0.8c0-0.7-0.6-1.3-1.4-1.3h-0.1h-3.6v-2.3
			h2.8c0.7,0,1.3-0.6,1.3-1.3l0,0v-0.9c0-0.7-0.6-1.3-1.3-1.3l0,0h-2.8v-2.4h2.9c0.7,0,1.3-0.6,1.3-1.3l0,0v-0.9
			c0-0.7-0.6-1.3-1.3-1.3l0,0h-2.9l-0.1-3.1h2c0.7,0,1.3-0.6,1.3-1.3v-0.9c0-0.7-0.6-1.3-1.3-1.3H297V212h1.5c0.7,0,1.3-0.6,1.3-1.3
			v-0.9c0-0.7-0.6-1.3-1.3-1.3h-1.6v-1.9h1c0.7,0,1.3-0.6,1.3-1.3v-0.1c0-0.7-0.6-1.3-1.3-1.3h-1l-0.1-7.3c1.4,3.2,2.5,6.4,3.4,9.8
			c1,3.5,2,6.6,3.2,8.6c2.1,3.4,5,5.6,8.1,6.3c0.6,0.1,1.2,0.2,1.9,0.2c2.3,0,4.5-0.8,6.4-2.2c3.9-2.8,4-10,3.6-15.2
			c0.1-2.2-0.1-4.5-0.6-6.7v-0.1c0.6-0.6,1-1.3,1.3-2.1c0.9-2.5,0.6-5.3-0.9-7.5c1-1.1,1.7-2.4,1.9-3.9c0.3-1.7-0.2-3.5-1.4-4.8
			c0.4-0.7,0.7-1.4,0.8-2.2c0.4-2.3-0.9-4.4-3.5-5.8c0.3-0.6,0.5-1.2,0.5-1.9c0-1.7-1.1-3.2-3.1-4.5v-0.1c0-0.9,4.3-5.9,4.3-5.9
			l5.7,1.1c0,0,2.9,12.2,3.4,15.8s2.9,11.8,4.7,19c1.1,5.1,1.6,10.4,1.4,15.6c0,0-2.5-0.7-2.7,2.5s0.2,3.2,0.9,5
			c0.4,1.1,0.5,1.6,1,1.9c-0.7,0.8-1.2,1.8-1.2,2.8c0,2.3,0.7,4.6,2,6.6c0,0,1.1,3.4,2.3,13.8s4.8,20.3,6.3,24.9
			c0.4,1.4,1,2.8,1.6,4.1c-0.5,1.4-1.9,3.9-0.8,6c0.2,0.4,0.5,0.7,0.9,0.9c0,0.5-0.2,2-0.7,4.5c-0.3,1.4-0.4,2.9-0.2,4.3
			c-0.2,0-0.4,0-0.6,0l-0.1,1c-0.3,2.1-0.1,4.2,0.6,6.2c0.8,2.2,0.7,2.8,1,3.1l-0.5,0.3l0.1,0.9c0.4,1.2,0.8,2.4,1.4,3.5
			c0.6,1.6,0.9,1.2,1.6,0.9s-0.1-6.1-0.1-6.1s-0.1,0-0.1-0.1c0.1-0.5,0.1-1,0-1.5c-0.2-1.6-0.4-3.3-0.4-4.9c0-0.6-0.2-1.2-0.6-1.8
			c0.3-0.6,0.4-1.3,0.5-2c0.2-2.2,0.7-8.1,0.7-8.1l0,0c0.9-0.2,1.7-0.4,2.6-0.6l-0.1,0.1c0,0,0.5,3.8,0.7,5.5s-0.1,3.3,0.7,4.8
			l0.3,1.7c0.2,1.2,0.7,2.4,1.5,3.3c0.6,1,0.4,1.6,0.7,3.4c0.1,0.5,0.2,0.9,0.5,1.3c-0.1,0.1-0.1,0.3-0.1,0.4
			c-0.1,0.6,0.2,1.7,0.9,3.5c0.2,0.5,0.3,0.9,0.4,1.3c-0.3,0-0.5-0.1-0.5-0.1s0.3,5,1.6,6.4s1.4-0.9,1.7-2.1c0.3-1-0.3-3.6-0.5-4.6
			c0-1,0-2.1-0.2-3.1c-0.1-0.8-0.6-1.5-1.2-2c1.5-0.7,0.5-2.1,0-3.2c-0.5-1.3-0.7-2.7-0.7-4.2c-0.1-1.8-1.2-2.1-1.2-2.1
			s-0.1-0.1-0.1-0.2c0.3-0.4,0.6-0.8,0.6-1.3c0.2-1.8-1.1-3.8-1.2-4.3s-0.1-2.8-0.3-4.5c0.9,0.7,1.6,1.6,2.1,2.7
			c0.5,1.9,0.9,3.9,1.1,5.9c0.1,0.6,0.3,1.1,0.7,1.5v0.1c0,0,0.5,4.3,0.5,6.3c0,1.2,0.2,2.5,0.5,3.7l-0.3-0.1c0,0-0.2,5,1.1,7.9
			s2,0.5,2-1.6c0-1.3-0.2-2.6-0.4-3.8c0.4-2.3-0.1-7.9-0.1-9.3c0-1.3-0.3-2.6-0.7-3.8c0.7-1.1-1.1-4.8-2-6.8s0-5.6,0-5.6
			s1.1,1.8,2,3.2c-1.4-0.5,3.6,5.4,4.7,7c0.8,1.1,1.9,1.6,2.9,1l0.1,0.1c0.9,1.1,4.5,1.4,5.6-0.5s-4.5-1.4-4.5-1.4
			c0.9-2.7-0.9-1.1-2-2.5s-2.5-3.4-2.5-3.4c1.1-1.4-4.1-5.6-4.8-6.1s-4.7-4.3-4.7-4.3c-0.7-2.3-3.4-2.3-4.1-5.6s-5.2-36.4-5.2-37.3
			s0.5-1.4,0.7-3.4c0.2-1.6-1.2-3.6-3.6-4.5c0-0.1,0.1-0.2,0.2-0.3c0.9-2.3,1.1-3.4,0-6.8s-1.8-6.3-2.3-7.9s-7.7-36.4-7.9-40
			s2.5-7,0.9-10.4s-4.8-3.6-5.4-3.4s-0.5-1.2-3.2-1.7c-0.1-1.2-1.2-2.1-2.4-2.1c-0.5,0-1.1,0.3-1.4,0.7c-1.1-0.1-4.3-0.3-11.5-0.3
			c-1.8,0-3.7,0.1-5.5,0.4c-1.6-2-4.6-3.6-8.3-4.4c0.3-0.3,0.4-0.6,0.4-1V140c0-0.7-0.6-1.3-1.3-1.3h-2.2v-1.3h0.8
			c0.7,0.1,1.4-0.5,1.5-1.2s-0.5-1.4-1.2-1.5c-0.1,0-0.2,0-0.2,0h-0.9l-0.1-3.6c0.8-0.2,1.5-0.4,2.2-0.8c2.4-1.3,6.8-4.2,7.4-6.8
			s0.9-9.6,0.9-9.6c2.2-1.7,3.5-4.4,3.5-7.2c0.2-5,2.6-10.3,0.4-17.9S296.6,75.6,288.1,78c0,0-6.1,0.9-9.8,5.3s-4.2,5.3-3.9,9
			c0.2,2.8,0.9,8.5,0.4,11.4s1.1,6.3,2.4,7.2c0.8,0.5,1.4,1.2,1.7,2c0,0-0.2,8.3,1.3,10.3c2.2,2.8,4.9,5.1,7.9,7
			c0.6,0.3,1.3,0.6,2,0.8l-0.1,3.8h-0.6c-0.7-0.1-1.4,0.5-1.5,1.2s0.5,1.4,1.2,1.5c0.1,0,0.2,0,0.2,0h0.6v1.3h-2
			c-0.7,0-1.3,0.6-1.3,1.3v0.8c0,0.3,0.1,0.6,0.3,0.8c-4.1,0.8-7.4,2.4-9.2,4.5c-1.6-0.2-3.2-0.3-4.8-0.3c-7.3,0-10.4,0.2-11.5,0.3
			c-0.4-0.4-1-0.7-1.6-0.7c-1.1,0-2.1,0.9-2.2,2c-2.8,0.5-2.6,2-3.3,1.8s-3.8,0-5.4,3.4s1.1,6.8,0.9,10.4s-7.5,38.4-7.9,40
			s-1.1,4.5-2.3,7.9s-0.9,4.5,0,6.8c0,0.1,0.1,0.2,0.2,0.3c-2.4,0.9-3.7,2.9-3.6,4.5c0.2,2,0.7,2.5,0.7,3.4s-4.5,33.9-5.2,37.3
			s-3.4,3.4-4.1,5.6c0,0-4.1,3.9-4.8,4.3s-5.9,4.7-4.8,6.1c0,0-1.4,2-2.5,3.4s-2.9-0.2-2,2.5c0,0-5.6-0.5-4.5,1.4
			S213.8,288,214.7,286.9z M343,226.7c1.1,2.5,2.3,6.8,4.3,18.3c1.2,6.3,2,12.6,2.5,19c0,0-3.4-9.7-5-15.6s-2.9-18.3-2.9-18.3
			L343,226.7z M266.8,167.5c-0.1,0.8-0.1,1.6-0.2,2.5l-0.4,0.1c-0.2-0.3-0.3-0.6-0.4-1C266,168.5,266.3,167.9,266.8,167.5
			L266.8,167.5z M265.5,173.2l0.1-0.1c0.3,0.2,0.7,0.5,1,0.7c0,0.7,0.1,1.4,0.3,2.1c-1.1,0.3-2.2,0.7-3.2,1.2l-0.2,0.1
			c-0.1-0.3-0.2-0.6-0.3-0.9C263,174.9,264.4,173.8,265.5,173.2L265.5,173.2z M263.2,181c0.9,0.8,1.9,1.5,3,2
			c-1,0.6-1.8,1.3-2.6,2.2l-0.1,0.1c-0.4-0.6-0.7-1.2-0.9-1.9C262.5,182.5,262.7,181.7,263.2,181z M274.3,185.2c-1,0.5-2,1-3,1.5
			c-1.1,0.6-2.1,1.3-3.1,2c-1-0.4-1.9-1-2.8-1.6l0.2-0.2c1.1-1.1,2.3-2,3.7-2.6c1,0.3,2.1,0.6,3.1,0.8
			C273,185.1,273.6,185.2,274.3,185.2L274.3,185.2z M273.3,182.5c4.2-1.5,8.5-2.6,12.9-3.5c0,0.5-0.1,0.9-0.1,1.4
			C282.4,181.9,277.7,183.2,273.3,182.5L273.3,182.5z M268.6,191.7c1.1,0.4,2.3,0.7,3.4,0.9s2.3,0.3,3.5,0.3
			c3.2-0.1,6.3-0.7,9.3-1.9c-2.5,2.8-6.6,7.3-14.6,6.6c-1.8-0.1-3.5-0.6-5-1.5C265.9,194.5,267.1,193,268.6,191.7L268.6,191.7z
			 M263.9,189.3c0.7,0.5,1.4,0.9,2.1,1.3c-1,1-1.9,2.2-2.6,3.4C262.9,192.5,263,190.7,263.9,189.3L263.9,189.3z M278.9,213.5
			c-1.7,2.8-4,4.6-6.4,5.1c-2.2,0.4-4.5-0.2-6.2-1.6c-1.2-0.9-1.9-2.5-2.3-4.5c1.1,1.3,2.4,2.3,4,2.9c1.2,0.5,2.5,0.8,3.8,0.8
			c4.1,0,6.8-3.1,8.6-6.6C280.1,211,279.6,212.3,278.9,213.5L278.9,213.5z M264,205.3c1.1,1.1,2.6,1.9,4.1,2.2
			c1,0.2,2.1,0.3,3.1,0.3c3,0.1,5.8-0.8,8.2-2.6c0.2-0.2,0.5-0.4,0.7-0.6c-2.8,6.4-5.4,10.6-11,8.4
			C265.6,211.6,264.3,208.4,264,205.3z M284.7,195.3c-2.3,2.9-4.9,6.2-6.9,7.9s-6,2.4-9.1,1.7c-1.5-0.2-2.7-1.1-3.5-2.4
			c-0.5-1-0.7-2.1-0.7-3.1l0.1-0.4v-0.1c1.7,0.8,3.5,1.3,5.4,1.4c0.6,0.1,1.2,0.1,1.7,0.1c7.6,0,12-4.2,14.5-7
			C285.6,194,285.1,194.7,284.7,195.3L284.7,195.3z M272.5,190.1c-0.5-0.1-0.9-0.2-1.3-0.3c0.4-0.3,0.9-0.5,1.3-0.8
			c4.2-2.2,8.8-3.9,13.5-4.9c0,0.6,0.1,1.2,0.3,1.8c0.3,0.4,0.6,0.9,0.9,1.3C283.2,189.1,277.7,191.2,272.5,190.1L272.5,190.1z
			 M287,148.8c-0.4-0.2-1-0.5-1.6-0.7c1.3-0.2,2.7-0.3,4.2-0.4v0.8C288.7,148.3,287.8,148.4,287,148.8z M285.6,155
			c-0.4-0.1-0.9-0.2-1.3-0.4l0.1-0.2l0.9-0.1C285.5,154.6,285.6,154.8,285.6,155z M287.4,237.6v1.5c-0.6-0.5-1.3-1-2-1.5H287.4z
			 M285.9,270.1c-1,1.8-2.2,2.2-5.2,0.2s-2.2-5.8-1-6.4s7.2,1.4,7.2,1.4C286.9,267,286.5,268.6,285.9,270.1L285.9,270.1z
			 M303.6,270.3c-3,2-4.2,1.6-5.2-0.2c-0.7-1.5-1-3.1-1-4.8c0,0,6-2,7.2-1.4S306.6,268.3,303.6,270.3L303.6,270.3z M300.3,237.6
			c-1.1,0.8-2,1.5-2.8,2.1v-2.1H300.3z M299.8,195.3c-1.1-1.4-2.1-2.7-3-3.7l-0.2-0.3l0,0c0.5,0.4,0.9,0.9,1.4,1.4l0.2,0.2
			c2.4,2.7,6.9,7.6,15,7.6c0.6,0,1.1,0,1.7-0.1c1.7-0.1,3.4-0.5,5-1.3l0.1,0.3c0,1.1-0.2,2.2-0.7,3.2c-0.7,1.3-2,2.2-3.5,2.4
			c-3.1,0.7-7,0-9.1-1.7S302.1,198.3,299.8,195.3L299.8,195.3z M299.9,151.8L299.9,151.8c0-0.3-0.1-0.5-0.1-0.8
			c0.5-0.2,1.1-0.5,1.9-0.8C300.9,150.5,300.2,151.1,299.9,151.8L299.9,151.8z M300.5,154.5c-0.4,0.1-0.8,0.3-1.2,0.4l0.2-0.5
			L300.5,154.5z M298.1,148.9c-0.7-0.4-1.5-0.5-2.3-0.5v-0.7c1.4,0.1,2.7,0.3,4,0.4C299.1,148.4,298.6,148.7,298.1,148.9
			L298.1,148.9z M316.5,188.9c-1-0.8-2.1-1.5-3.3-2.2c-1-0.5-2-1-3-1.5c0.8,0,1.6-0.1,2.3-0.2c1-0.2,2-0.4,3-0.7
			c1.4,0.7,2.6,1.5,3.6,2.6c0.1,0.1,0.2,0.2,0.3,0.3C318.5,187.9,317.6,188.5,316.5,188.9L316.5,188.9z M319.4,196.4
			c-1.4,0.8-3,1.3-4.7,1.4c-8,0.6-12.2-3.9-14.6-6.7l0,0c3.9,1.6,8.5,2.6,13,1.7c1-0.2,2-0.5,3-0.8
			C317.5,193.1,318.6,194.7,319.4,196.4L319.4,196.4z M298.9,180.3c0-0.4,0-0.9-0.1-1.3c4.4,0.8,8.6,2,12.8,3.5
			C307.1,183.2,302.5,181.8,298.9,180.3L298.9,180.3z M299,184.2c4.5,1,8.9,2.6,13,4.8c0.5,0.3,1,0.6,1.5,0.9
			c-0.3,0.1-0.6,0.2-0.9,0.2c-5.2,1-10.7-1-14.7-3c0.3-0.4,0.6-0.9,0.9-1.3C298.9,185.3,299,184.8,299,184.2L299,184.2z M318.1,217
			c-1.8,1.4-4,2-6.2,1.6c-2.4-0.5-4.6-2.3-6.4-5.1c-0.7-1.2-1.2-2.5-1.7-3.9c1.9,3.4,4.5,6.6,8.7,6.6c1.3,0,2.6-0.3,3.8-0.8
			c1.6-0.6,3-1.6,4-2.9C320,214.5,319.3,216.2,318.1,217z M315.4,213c-5.7,2.2-8.2-2-11-8.4c0.2,0.2,0.5,0.4,0.7,0.6
			c2.4,1.7,5.3,2.6,8.2,2.6c1,0,2.1-0.1,3.1-0.3c1.5-0.3,3-1.1,4.1-2.2C320.1,208.4,318.9,211.6,315.4,213L315.4,213z M321.4,194.1
			c0,0.1-0.1,0.2-0.1,0.3c-0.7-1.3-1.6-2.5-2.6-3.6c0.8-0.4,1.6-0.9,2.3-1.4C321.8,190.8,321.9,192.5,321.4,194.1L321.4,194.1z
			 M322.3,183.3c-0.2,0.7-0.5,1.4-0.9,2c-0.1-0.1-0.1-0.1-0.2-0.2c-0.7-0.8-1.6-1.5-2.5-2.1c1.1-0.5,2.2-1.2,3.1-2
			C322.2,181.7,322.4,182.5,322.3,183.3L322.3,183.3z M318.6,173.3l0.4-0.3l0.4,0.2c1.2,0.6,2.5,1.7,2.3,3.2
			c-0.1,0.3-0.1,0.6-0.3,0.9l-0.2-0.1c-0.9-0.5-1.9-0.9-2.9-1.1C318.5,175.1,318.6,174.2,318.6,173.3L318.6,173.3z M321.4,148.5
			c-0.9,0.4-1.5,0.7-1.5,0.7c-2.2-0.5-4.5-0.7-6.7-0.8C317.2,148.4,319.8,148.4,321.4,148.5L321.4,148.5z M317,178.4
			c0.9,0.2,1.8,0.5,2.6,0.9c-1.2,0.9-2.5,1.7-3.9,2.1c-3.2-1.5-6.6-2.6-10-3.5c1.5-0.1,3.1-0.2,4.7-0.2
			C312.1,179.2,315.3,179.8,317,178.4L317,178.4z M308.2,171.8c0.3,1,0.5,1.9,0.8,2.7c-3.4,0.8-6.9,1.3-10.4,1.5
			c-0.1-1.1-0.2-2.2-0.3-3.3C301.5,172.2,304.8,171.9,308.2,171.8L308.2,171.8z M306.7,166.6c-2.9,0.7-5.9,1.1-8.9,1.4
			c-0.1-1.4-0.2-2.7-0.3-3.9c2.2-0.2,4.4-0.6,6.5-1.1l1.8,0.3L306.7,166.6z M304.2,158c0.3,0.6,0.5,1.2,0.7,1.9
			c-0.4,0.1-0.7,0.2-1.1,0.3c-2.1-0.3-4.2-0.5-6.4-0.6c0-0.4,0.1-0.9,0.2-1.3l0.3-0.4c1.6-0.3,3.3-0.8,4.8-1.4
			C303.1,156.9,303.7,157.5,304.2,158z M302.9,146.1c-2.4-0.5-4.8-0.9-7.2-1v-1.2C298.2,144.1,300.7,144.9,302.9,146.1L302.9,146.1z
			 M301,253.7c3.6-2.6,4.8-0.6,4.8,1.8c0,1.4-0.3,2.7-0.8,4l-12.2,5.2C292.8,264.7,297.5,256.3,301,253.7z M300.8,99.5
			c2.4,0,4.4,2,4.4,4.4s-2,4.4-4.4,4.4l0,0c-2.4,0-5.4-3-5.4-5.4S298.4,99.5,300.8,99.5L300.8,99.5z M284.4,108.4
			c-2.4,0-4.4-2-4.4-4.4s2-4.4,4.4-4.4l0,0c2.4,0,5.4,1,5.4,3.4S286.8,108.4,284.4,108.4L284.4,108.4z M290.5,110
			c0.7-1.1,1.4-2.3,1.9-3.5c1-0.8,1.6,2.5,2.6,4.5c0.7,1.2,0.5,2.6-0.5,3.5c-0.4,0.6-3.6,0.4-4.3-0.6
			C289.5,112.7,289.6,111.1,290.5,110L290.5,110z M291.4,264.7l-12.2-5.2c-0.5-1.3-0.8-2.6-0.8-4c0-2.4,1.2-4.4,4.8-1.8
			C286.9,256.3,291.5,264.7,291.4,264.7L291.4,264.7z M289.7,143.8v1.3c-2.7,0.1-5.4,0.5-8,1.1C284.2,144.7,286.9,143.9,289.7,143.8
			L289.7,143.8z M285.3,150.8c-0.1,0.2-0.1,0.3-0.1,0.5c-0.9-1.3-3.4-1.7-3.4-1.7c-0.3-0.1-0.6-0.2-0.9-0.3
			C282.4,149.7,283.9,150.2,285.3,150.8L285.3,150.8z M281.1,158c0.4-0.5,0.9-0.9,1.4-1.3c1.5,0.6,3.1,1.1,4.7,1.3
			c0.1,0.1,0.1,0.2,0.2,0.3c0.2,0.4,0.2,0.8,0.2,1.3c-2.3,0.1-4.6,0.3-6.8,0.6l-0.4-0.1C280.6,159.4,280.8,158.7,281.1,158z
			 M279.5,163l1-0.2c2.3,0.6,4.6,1,6.9,1.2c-0.1,1.2-0.2,2.5-0.3,3.9c-2.9-0.2-5.8-0.6-8.6-1.2C278.8,165.4,279.2,164.2,279.5,163
			L279.5,163z M277.1,171.7c3.2,0.1,6.4,0.4,9.6,0.9c-0.1,1.1-0.2,2.2-0.3,3.3c-0.9-0.1-1.7-0.1-2.5-0.2l-2.3-0.3
			c-1.9-0.2-3.6-0.5-5.2-0.9C276.5,173.8,276.8,172.8,277.1,171.7L277.1,171.7z M274.8,177.7c1.4,0,2.9,0.1,4.2,0.2
			c-3.4,0.9-6.8,2-10,3.5c-1.4-0.5-2.7-1.2-3.8-2.1c0.9-0.5,1.9-0.8,2.9-1C269.9,179.8,273.2,179.2,274.8,177.7L274.8,177.7z
			 M272,148.4c-2.3,0.1-4.5,0.4-6.7,0.8c0,0-0.6-0.3-1.5-0.7C265.5,148.4,268.1,148.4,272,148.4z M238,245c2-11.5,3.2-15.8,4.3-18.3
			l1.1,3.4c0,0-1.4,12.4-2.9,18.3s-5,15.6-5,15.6C236,257.6,236.8,251.3,238,245z"/>
		<path class="st4" d="M307.4,169.1v0.1h-0.7L307.4,169.1z"/>
		<path class="st4" d="M303.5,149.6l-0.6,0.1c0.4-0.1,0.8-0.2,1.2-0.4C303.9,149.5,303.7,149.6,303.5,149.6z"/>
		<path class="st4" d="M318.6,169.1c0,0.1,0,0.2-0.1,0.3l-0.1-0.9C318.6,168.7,318.6,168.9,318.6,169.1z"/>
		<path d="M377.1,343.7h-170c-0.3,0-0.5-0.2-0.5-0.5V66.4c0-0.3,0.2-0.5,0.5-0.5h170c0.3,0,0.5,0.2,0.5,0.5v276.8
			C377.6,343.4,377.4,343.7,377.1,343.7z M207.6,342.7h169V66.9h-169V342.7z"/>
		<rect x="231.9" y="192.6" transform="matrix(0.5673 -0.8235 0.8235 0.5673 -68.9792 280.4788)" width="1" height="26.5"/>
		<rect x="258.3" y="121.2" transform="matrix(0.9615 -0.2748 0.2748 0.9615 -27.7004 76.3933)" width="1" height="31.7"/>
		<rect x="305.3" y="88.8" transform="matrix(0.9778 -0.2095 0.2095 0.9778 -11.6498 68.6444)" width="25.8" height="1"/>
		<rect x="331.5" y="123.8" width="1" height="29.5"/>
		<rect x="234.6" y="122.8" width="11.1" height="1"/>
		<rect x="336.8" y="86.9" width="11.6" height="1"/>
		<rect x="212.3" y="194.5" width="11.1" height="1"/>
		<rect x="233.6" y="324.7" width="36.8" height="1"/>
		<rect x="219.6" y="326.7" width="8.2" height="1"/>
	</g>
</g>
<g id="freepik--Plant--inject-21">
	<rect x="75.4" y="290.6" class="st2" width="4.6" height="149.8"/>
	<path class="st0" d="M77,297.8c0,0,4.5-16.5,9.6-27.5s29.1-23.3,31.2-18.5c2.1,4.8,0.9,13.3-5.7,25.9S77,297.8,77,297.8z"/>
	<path class="st0" d="M77.9,290c0,0-6.7-15.8-9.5-27.5s9.1-34.2,13.8-31.4s9.2,10.4,11.7,24.2S77.9,290,77.9,290z"/>
	<path class="st0" d="M78.4,298c0,0-2.3-16.8-5.9-28.4S46.7,243.3,44,247.9s-2.7,13.1,2.3,26.3S78.4,298,78.4,298z"/>
	<path class="st0" d="M77.4,319.6c0,0,8.8-15,16.8-24.5s34.5-16,35.2-10.9s-2.7,13.1-12.6,23.8S77.4,319.6,77.4,319.6z"/>
	<path class="st0" d="M79.1,319.6c0,0-8.8-15-16.8-24.5s-34.5-16-35.2-10.9s2.7,13.1,12.6,23.8S79.1,319.6,79.1,319.6z"/>
	<path class="st0" d="M77.4,349.2c0,0,8.8-15,16.8-24.5s34.5-16,35.2-10.9s-2.7,13.1-12.6,23.8S77.4,349.2,77.4,349.2z"/>
	<path class="st0" d="M79.1,349.2c0,0-8.8-15-16.8-24.5s-34.5-16-35.2-10.9s2.7,13.1,12.6,23.8S79.1,349.2,79.1,349.2z"/>
	<path class="st0" d="M77.4,378.8c0,0,8.8-15,16.8-24.5s34.5-16,35.2-10.9s-2.7,13.1-12.6,23.8S77.4,378.8,77.4,378.8z"/>
	<path class="st0" d="M79.1,378.8c0,0-8.8-15-16.8-24.5s-34.5-16-35.2-10.9s2.7,13.1,12.6,23.8S79.1,378.8,79.1,378.8z"/>
	<path class="st0" d="M77.4,408.3c0,0,8.8-15,16.8-24.5s34.5-16,35.2-10.9s-2.7,13.1-12.6,23.8S77.4,408.3,77.4,408.3z"/>
	<path class="st0" d="M79.1,408.3c0,0-8.8-15-16.8-24.5S27.8,367.9,27,373s2.7,13.1,12.6,23.8S79.1,408.3,79.1,408.3z"/>
	<path class="st0" d="M77.4,431.8c0,0,8.8-15,16.8-24.5s34.5-16,35.2-10.9s-2.7,13.1-12.6,23.8S77.4,431.8,77.4,431.8z"/>
	<path class="st0" d="M79.1,431.8c0,0-8.8-15-16.8-24.5s-34.5-16-35.2-10.9s2.7,13.1,12.6,23.8S79.1,431.8,79.1,431.8z"/>
	<path class="st2" d="M79.3,318.3l-0.4-0.9c0.3-0.1,26.3-12.3,36.7-24l0.8,0.7C105.7,306,79.5,318.2,79.3,318.3z"/>
	<path class="st2" d="M75.7,317.8c-10.1-5.6-19.6-12-28.6-19.2l0.6-0.8c12.7,10.5,28.3,19,28.4,19.1L75.7,317.8z"/>
	<path class="st2" d="M76.6,298.1c-0.2-0.2-16.3-22.9-20.5-30.3l0.9-0.5c4.2,7.4,20.3,30,20.5,30.2L76.6,298.1z"/>
	
		<rect x="71.5" y="282.5" transform="matrix(0.6487 -0.7611 0.7611 0.6487 -183.3716 168.7977)" class="st2" width="39.3" height="1"/>
	<polygon class="st2" points="79.1,296.6 70.9,265.4 71.8,265.1 78.4,289.9 80,249.9 81,249.9 	"/>
	<path class="st2" d="M77.4,349.8l-0.3-0.2c-0.2-0.2-24.2-15.3-35.5-23.8l0.6-0.8c10.6,8,32.5,21.9,35.2,23.6
		c2.8-1.7,27-16.6,34.9-25.1l0.7,0.7c-8.5,9-35.1,25.3-35.4,25.4L77.4,349.8z"/>
	<path class="st2" d="M77.5,379.3l-0.3-0.1c-18-7.8-37.7-25.5-37.9-25.7l0.7-0.7c0.2,0.2,19.6,17.6,37.4,25.4
		c2.2-1.6,19.6-14.5,34.2-23.1l0.5,0.9c-15.5,9.2-34.2,23.1-34.4,23.3L77.5,379.3z"/>
	<path class="st2" d="M77.4,408.9l-0.2-0.2c0,0-14.6-10.3-31.5-22.3l0.6-0.8c15.6,11.1,29.3,20.8,31.3,22.1
		c12.5-5.9,23.8-13.9,33.5-23.6l0.7,0.7c-9.8,9.9-21.3,18-34,23.9L77.4,408.9z"/>
	<path class="st2" d="M77.3,432.2c-14.1-4.6-34.9-21.2-35.1-21.4l0.6-0.8c0.2,0.2,20.8,16.7,34.8,21.2L77.3,432.2z"/>
	<path class="st2" d="M79.3,432.2l-0.5-0.9c0.2-0.1,17.8-9.7,30.8-20l0.6,0.8C97.2,422.4,79.5,432.1,79.3,432.2z"/>
</g>
<g id="freepik--Characters--inject-21">
	<path class="st2" d="M152.4,228.1c0,0,8.1,0.4,9.4,0.8s7.4,0.8,7.4,0.8s-7.7,7.4-8.3,7.6s-1.6,0.1-4-1.4S152.4,228.1,152.4,228.1z"
		/>
	<path class="st2" d="M160.3,237.9c-0.9,0-2-0.5-3.7-1.6c-2.5-1.6-4.6-7.7-4.7-8c-0.1-0.3,0.1-0.6,0.3-0.6c0.1,0,0.1,0,0.2,0
		c0.3,0,8.2,0.4,9.6,0.8c2.4,0.4,4.8,0.6,7.3,0.8c0.3,0,0.5,0.2,0.5,0.5c0,0.1-0.1,0.3-0.2,0.4c-2.3,2.2-7.9,7.4-8.5,7.7
		C160.8,237.8,160.6,237.9,160.3,237.9z M153.1,228.7c0.6,1.6,2.3,5.6,4,6.7s3,1.6,3.5,1.4s4.5-4,7.4-6.7c-2.1-0.1-4.2-0.3-6.3-0.7
		C160.7,229.2,155.7,228.8,153.1,228.7z"/>
	<polygon class="st6" points="244.5,440.4 269.2,440.4 256.5,388.5 251.8,352.3 233.9,352.1 235.9,407.1 	"/>
	<path class="st6" d="M269.8,440.9H244l-8.7-33.8l-2-55.5l18.9,0.1l4.8,36.6L269.8,440.9z M244.8,439.9h23.7L256,388.6l-4.7-35.8
		l-17-0.1l2,54.4L244.8,439.9z"/>
	<path class="st4" d="M243.7,289.4l8.1,62.9h-14.3C237.5,352.3,239.6,287.5,243.7,289.4z"/>
	<path class="st2" d="M252.4,352.8H237v-0.5c0.2-6.2,2.2-60.9,6.1-63.3c0.3-0.2,0.6-0.2,0.9-0.1l0.3,0.1v0.3L252.4,352.8z
		 M238,351.8h13.2l-7.9-61.7C241.1,293.5,239,323.6,238,351.8L238,351.8z"/>
	<path class="st4" d="M125.6,397l5.4,43.4h120.2l-10.6-66.3l1.3-47.6c0,0,2.6-40.2,1.8-46.3s-2.3-9.5-4.2-11.3
		c-14.2-13.5-31.6-21.6-33.5-24.7s-8-5.3-8-5.3l-23.9-0.3l-17.3-4.6l-4.2-6c0,0-6.8,8.9-7.1,9.7s-26.3,29.7-27.6,37.6
		s-0.5,33.1,0,50.5S125.6,397,125.6,397z"/>
	<path class="st2" d="M251.1,440.9H130.9c-0.3,0-0.5-0.2-0.5-0.4l-5.4-43.4c-0.1-0.7-7.4-53.9-7.9-71.1v-0.8
		c-0.5-17.7-1.3-42,0-49.8c1-6.3,16.9-25,24.5-33.9c1.6-1.9,3.1-3.6,3.2-3.8c0.3-0.8,5.5-7.7,7.2-9.8c0.1-0.1,0.2-0.2,0.4-0.2
		s0.3,0.1,0.4,0.2l4.1,5.8l17.1,4.5l23.9,0.3h0.2c0.3,0.1,6.2,2.2,8.3,5.5c0.7,1.1,4,3.2,8.2,5.9c6.6,4.2,16.6,10.5,25.3,18.8
		c2.2,2.1,3.6,5.8,4.4,11.6c0.8,6-1.7,44.8-1.8,46.4l-1.3,47.6l10.6,66.2C251.7,440.6,251.5,440.9,251.1,440.9
		C251.2,440.9,251.1,440.9,251.1,440.9z M131.4,439.9h119.1L240,374.2l1.3-47.7c0-0.4,2.6-40.3,1.8-46.2c-0.7-5.5-2-9.1-4.1-11
		c-8.6-8.2-18.1-14.2-25.1-18.6c-4.6-2.9-7.7-4.9-8.5-6.2c-1.8-2.8-7-4.8-7.7-5l-23.9-0.3h-0.1l-17.3-4.6c-0.1,0-0.2-0.1-0.3-0.2
		l-3.8-5.4c-2.6,3.4-6.4,8.5-6.6,9.1c-0.1,0.2-0.4,0.6-3.4,4.1c-6.9,8.2-23.2,27.4-24.2,33.4c-1.3,7.7-0.6,32,0,49.6v0.8
		c0.5,17.1,7.8,70.4,7.9,71l0,0L131.4,439.9z"/>
	
		<rect x="129.1" y="409.5" transform="matrix(0.7915 -0.6112 0.6112 0.7915 -217.5004 182.4801)" class="st2" width="59.2" height="1"/>
	
		<rect x="149.4" y="402.8" transform="matrix(0.7895 -0.6137 0.6137 0.7895 -213.0459 185.3437)" class="st2" width="28.5" height="1"/>
	<path class="st6" d="M165,206.7l1.2,21.7l-9.5,5.6c0,0,12.4,9.7,17.9,17.5c5.5,7.8,18.8,23.1,25.6,22.5s8.1-15.9,7.2-21.2
		s-1.4-8.7-1.4-8.7l-0.8-2.7c0,0-11.3-2.5-16.3-6.4s-21-28.5-21.9-29.1S165,206.7,165,206.7z"/>
	<path class="st6" d="M199.7,274.6c-7.3,0-20.6-15.5-25.7-22.7c-5.3-7.6-17.6-17.3-17.8-17.4l-0.6-0.5l9.9-5.8l-1.2-21.6l0.1-0.1
		c0.5-0.6,1.5-1.6,2.6-0.9c0.4,0.2,1.4,1.6,5.1,6.9c5.4,7.8,13.6,19.6,16.9,22.2c4.9,3.8,16,6.3,16.1,6.3l0.3,0.1l0.9,3
		c0,0.1,0.4,3.6,1.4,8.8c0.7,4,0.2,14.4-3.5,19.2c-0.9,1.4-2.4,2.3-4.1,2.5C200,274.6,199.9,274.6,199.7,274.6z M157.5,234.1
		c2.5,2,12.6,10.3,17.4,17.1c5.6,8,18.8,22.9,25.2,22.3c1.4-0.2,2.6-1,3.4-2.1c3.4-4.4,4.1-14.4,3.3-18.4c-1-5.2-1.4-8.7-1.4-8.8
		l-0.7-2.4c-1.8-0.4-11.5-2.8-16.2-6.4c-3.4-2.6-11.7-14.6-17.1-22.4c-2.3-3.3-4.4-6.4-4.8-6.7s-0.9,0.3-1.1,0.5l1.2,21.9
		L157.5,234.1z"/>
	<rect x="165.6" y="228.5" class="st2" width="1" height="8"/>
	<path class="st2" d="M204.3,262.7c-1.5-2.4-1.8-8.4-1.8-9.8c0-1.8,2.6-8.2,2.9-8.9l0.9,0.4c-0.8,1.9-2.9,7.2-2.9,8.5
		c0,1.8,0.4,7.2,1.7,9.2L204.3,262.7z"/>
	<path class="st6" d="M224.2,179.4c0,0,1.4,11.1,1.2,13.6s-1.8,12-2.1,14.9s-0.6,7.8-1.8,11.6s-7.9,16.5-8.9,18.5
		c-1.3,2.9-3.6,5.1-6.6,6.2c-3.9,1.4-12-1-14.6-1.9s-16.5-14.4-19.6-17.7s-6.2-15.1-6.2-15.1c-2.9-1.6-5.4-3.8-7.4-6.4
		c-3.5-4.5-5-10.3-4.3-13.4s1.5-5.8,3.7-6.2c2.1-0.3,4.2-0.1,6.2,0.6c1,0.4-3.5-16.1-3.5-16.1s14.6-9.3,30.3-9.5
		S222.8,171.8,224.2,179.4z"/>
	<path class="st2" d="M202.9,245.1c-4-0.2-8-1-11.7-2.4c-2.7-1-16.8-14.6-19.8-17.8s-5.8-13.5-6.3-15.1c-2.8-1.6-5.3-3.8-7.4-6.4
		c-3.7-4.7-5.1-10.8-4.4-13.8s1.5-6.1,4.1-6.6c2-0.3,4-0.1,5.9,0.4c-0.2-1.9-1.9-9-3.6-15.3l-0.1-0.4l0.3-0.2
		c0.1-0.1,14.9-9.4,30.6-9.6h0.3c15.5,0,32.3,13.3,33.7,21.4l0,0c0.1,0.5,1.4,11.1,1.2,13.7c-0.1,1.7-0.8,6.1-1.4,10.1
		c-0.3,2-0.6,3.9-0.7,4.9c-0.1,0.8-0.2,1.7-0.3,2.7c-0.2,3.1-0.7,6.1-1.5,9.1c-1,3.2-5.6,12.2-7.9,16.5c-0.5,1-0.9,1.7-1.1,2
		c-1.3,3-3.8,5.3-6.9,6.5C205.1,244.9,204,245.1,202.9,245.1z M159.3,183.8c-0.5,0-1.1,0-1.6,0.1c-2,0.3-2.6,2.9-3.4,5.8
		s0.7,8.5,4.2,13c2,2.5,4.4,4.7,7.2,6.3l0.2,0.1l0.1,0.2c0,0.1,3.1,11.8,6.1,14.9c3.3,3.5,17.1,16.6,19.4,17.5
		c2.5,1,10.5,3.2,14.2,1.9c2.8-1,5.1-3.2,6.3-6c0.2-0.4,0.6-1.1,1.1-2.1c2.2-4.3,6.9-13.2,7.8-16.3c0.8-2.9,1.2-5.9,1.4-8.9
		c0.1-1,0.2-1.9,0.3-2.7c0.1-1,0.4-2.9,0.7-4.9c0.6-3.7,1.3-8.4,1.4-10c0.2-2.4-1.1-13-1.2-13.5c-1.3-6.8-17.1-20.5-32.8-20.5h-0.3
		c-14.1,0.2-27.5,7.9-29.7,9.2c4.2,15.5,3.6,16,3.3,16.3l-0.2,0.2l-0.4-0.1C162.2,184,160.8,183.8,159.3,183.8z"/>
	<path class="st2" d="M164,190.6c0,0-0.5,6.6,1.3,6.6c1.2-0.1,2.3-0.8,2.9-1.9l1-3.7l8.2-5l-0.8-16.1l14.8,5.3l7.9,1.1
		c0,0-14,3.4-11.9,4.5c4.9,2,10.1,2.9,15.4,2.6c7.1-0.3,14.8-4,14.8-4s-1.9,4.5,0,4s9.5-4.2,12.9-8.4s0-10.8-3.4-16.1
		s-12.4-19.6-21.7-22.5s-24.6-1.3-29.6,1.6S155,162,154.5,166s3.2,17.4,3.2,17.4S164.8,188.2,164,190.6z"/>
	<path class="st2" d="M165.3,197.7c-0.4,0-0.7-0.1-1-0.4c-1.3-1.4-0.9-6.2-0.9-6.7v-0.1c0.5-1.4-3.3-4.7-6.1-6.6l-0.1-0.1l-0.1-0.2
		C157,183,153.5,170,154,166c0.6-4.2,16.7-25,21.6-27.8c5.4-3.1,20.9-4.5,30-1.6s17.8,16.3,21.6,22.1l0.4,0.6
		c3.5,5.4,7.1,12.2,3.4,16.7c-3.5,4.4-11.3,8.1-13.2,8.6c-0.4,0.2-0.9,0.1-1.1-0.3c-0.6-0.6-0.3-2.1,0.1-3.3
		c-2.4,1-8.3,3.3-13.9,3.5c-7,0.3-13.1-1.5-15.6-2.7c-0.3-0.1-0.5-0.4-0.5-0.8c0.1-1,3.4-2.3,10-4l-5.4-0.7l-14.1-5l0.8,15.7
		l-8.4,5.1l-1.1,3.6C167.9,196.8,166.7,197.6,165.3,197.7z M164.5,190.7c-0.1,1.9-0.1,5.1,0.6,5.9c0,0.1,0.1,0.1,0.2,0.1
		c1-0.1,1.9-0.7,2.4-1.6l1.1-3.8l8.1-5l-0.8-16.6l15.4,5.5l10.5,1.4l-2.6,0.6c-4.9,1.2-10.3,2.9-11.5,3.7c4.7,1.8,9.8,2.7,14.8,2.5
		c6.9-0.3,14.5-3.9,14.6-3.9l1.2-0.6l-0.5,1.2c-0.6,1.4-0.9,3-0.7,3.3c0,0,0,0,0.1,0c2-0.6,9.5-4.3,12.7-8.3s-0.1-10.4-3.5-15.5
		l-0.4-0.6c-3.7-5.7-12.3-18.9-21-21.7c-9.3-2.9-24.6-1.1-29.2,1.5c-5.1,2.9-20.7,23.6-21.2,27.1s2.7,15.5,3.1,17.1
		C159.6,184.2,165.2,188.1,164.5,190.7L164.5,190.7z"/>
	<path class="st2" d="M207.8,226.1h-0.5c-2.1-0.1-4.1-0.7-5.9-1.8l0.6-0.8c1.6,1,3.5,1.6,5.4,1.6c1.5,0.2,3-0.3,4.2-1.3
		c0.3-0.2,0.4-0.5,0.5-0.8c0-0.6-1-10.1-1.7-16.4v-0.1l2-9.6l1,0.2l-1.9,9.4c0.2,1.9,1.7,15.7,1.7,16.5c-0.1,0.6-0.4,1.1-0.8,1.5
		C211,225.6,209.4,226.1,207.8,226.1z"/>
	<path class="st2" d="M214.4,196.7l-0.4-0.9c0.3-0.1,6.3-2.4,9.2-0.3l-0.6,0.8C220.2,194.5,214.5,196.7,214.4,196.7z"/>
	<path class="st2" d="M201.6,197.7c-0.1,0-7.4-3.4-14.1-0.2l-0.4-0.9c7.1-3.4,14.7,0,15,0.2L201.6,197.7z"/>
	<path class="st2" d="M204.2,232c-1.7,0.1-3.4-0.1-5-0.6c-2.2-0.8-4.3-1.9-6.3-3.2l0.6-0.8c1.9,1.2,4,2.2,6.1,3
		c2.8,0.9,8.9,0.4,9.4,0.2l0.3,0.9C207.6,231.9,205.9,232,204.2,232z"/>
	<ellipse class="st2" cx="194.7" cy="205.3" rx="1.9" ry="2.8"/>
	<path class="st2" d="M218.5,205c0,1.6-0.9,2.8-1.9,2.8s-1.9-1.3-1.9-2.8s0.9-2.8,1.9-2.8S218.5,203.4,218.5,205z"/>
	<path class="st7" d="M309.8,326.8c0,0-33.9-5.4-37.5-6.6s-12-6.4-12-6.4s-18.4-20.7-19.9-21.7s-13.8,4.1-15.6,5.1s-8.2,6.1-8.4,7.4
		s1.5,4.9,1.5,4.9s17.4,15.6,19.4,16.3s21.2,6.1,21.2,6.1s46.4,24.2,48.7,26s12.8,5.4,16.6,5.4s8.2-3.1,8.2-3.1l-4.9-29.1
		L309.8,326.8z"/>
	<path class="st2" d="M323.8,363.8c-4,0-14.5-3.6-16.9-5.5c-1.8-1.4-32.5-17.6-48.6-26c-1.3-0.4-19.2-5.4-21.2-6.1
		s-17.8-14.8-19.6-16.4l-0.1-0.1c-0.3-0.6-1.9-3.8-1.6-5.2c0.3-1.6,7.2-6.9,8.7-7.7c1-0.6,14.1-6.4,16.1-5.1
		c1.5,1,17.8,19.4,19.9,21.7c0.8,0.5,8.5,5.1,11.8,6.3c3.5,1.2,37.1,6.5,37.4,6.6l0,0l17.7,4.4l5,29.7l-0.3,0.2
		C332.1,360.7,327.8,363.8,323.8,363.8z M218.3,309.1c6.9,6.2,17.7,15.6,19.2,16.2c2,0.8,21,6.1,21.1,6.1h0.1
		c1.9,1,46.5,24.3,48.8,26.1s12.6,5.3,16.3,5.3c3.1,0,6.6-2.2,7.6-2.8l-4.7-28.5l-17-4.3c-1.7-0.3-34-5.4-37.6-6.6
		s-11.7-6.2-12.1-6.4l-0.1-0.1c-7.4-8.3-18.7-20.9-19.8-21.6s-12.6,3.8-15,5.1c-1.9,1.1-8,6.1-8.2,7.1
		C216.7,305.5,217.7,307.8,218.3,309.1z"/>
	<polygon class="st0" points="224,300.1 195.9,335 201.4,348.7 227.8,354 245.6,314.2 232.9,301.5 	"/>
	<path class="st2" d="M228.1,354.5l-27.1-5.4l-5.7-14.3l28.4-35.4l9.3,1.5l13.1,13.1L228.1,354.5z M201.7,348.3l25.8,5.1l17.5-39.1
		L232.6,302l-8.4-1.3l-27.7,34.5L201.7,348.3z"/>
	<path class="st0" d="M314.4,332.8c5.1,3.1,10.1,5.7,10.1,5.7l5.7,67.8l0.4,34.1h140.2c-2.1-6.3-12.1-35.6-14.8-40.5
		c-3.1-5.5-10.4-37.5-10.4-37.5l3.8-50.3c0,0,6.1-53.5,6.1-54.4s-0.9-8.9-0.9-8.9s-50.2-29.2-56.4-30.1s-9.7,1.8-12.4,2
		s-22.5,1.6-27.8,3.8c-3.8,1.6-22.6,9.5-32.9,13.9c-4.2,1.8-7,5.7-7.4,10.3l-5.2,69.2c0,0-4.4,1.1-4.4,2.2c-0.3,1.9-0.6,3.7-1.1,5.5
		C308.9,328.5,311.4,331,314.4,332.8z"/>
	<path class="st2" d="M471.6,440.9H330.2l-0.4-34.6l-5.7-67.4c-1.1-0.6-5.5-2.9-9.9-5.6c-3.1-1.8-5.6-4.4-7.5-7.5l-0.1-0.2v-0.2
		c0.5-1.8,0.8-3.6,1.1-5.4c0-1.2,2.6-2.1,4.4-2.6l5.2-68.9c0.3-4.7,3.3-8.9,7.7-10.7c13.1-5.5,29.4-12.4,32.9-13.9
		c4.9-2,21.4-3.3,26.8-3.7l1.2-0.1c1-0.1,1.9-0.4,2.8-0.8c3.1-1.2,6.4-1.7,9.7-1.2c6.2,0.9,54.5,28.9,56.6,30.1l0.2,0.1v0.3
		c0,0.3,0.9,8.1,0.9,9s-5.5,48.9-6.1,54.4l-3.7,50.2c0.4,1.7,7.4,32,10.3,37.3c2.7,4.8,12.1,32.3,14.9,40.6L471.6,440.9z
		 M331.2,439.9h139c-2.4-7.2-11.9-35.1-14.6-39.8c-3.1-5.5-10.1-36.3-10.4-37.6v-0.1v-0.1L449,312c2.1-18.4,6.1-53.4,6.1-54.3
		c0-0.7-0.6-6.2-0.9-8.6c-3.6-2.1-50.2-29.1-56-29.9c-3.1-0.4-6.3,0-9.2,1.2c-1,0.4-2,0.7-3,0.8l-1.2,0.1
		c-14.4,1.1-23.4,2.3-26.5,3.6c-3.5,1.5-19.8,8.4-32.9,13.9c-4,1.7-6.7,5.5-7,9.8l-5.2,69.6l-0.4,0.1c-2,0.5-3.9,1.3-4,1.7
		c-0.2,1.8-0.6,3.6-1.1,5.4c1.8,2.8,4.2,5.2,7,6.9l0,0c5,3,10.1,5.7,10.1,5.7l0.3,0.1v0.3l5.7,67.8L331.2,439.9z"/>
	<path class="st2" d="M441.9,408.9l-0.1-1c5-0.5,5.8-0.6,5.9-0.6v1C447.5,408.3,445.5,408.5,441.9,408.9z"/>
	<path class="st2" d="M394.1,414.4l-0.1-1c0,0,28.7-3.3,44.1-5.1l0.1,1C422.8,411.1,394.1,414.4,394.1,414.4z"/>
	<polygon class="st2" points="395.8,421.5 395,418.3 396,418.1 396.5,420.4 446.7,414 446.8,415 	"/>
	<ellipse class="st4" cx="348" cy="295.4" rx="8.5" ry="8.9"/>
	<path class="st2" d="M348,304.8c-5.2,0.2-9.6-3.8-9.8-9c-0.2-5.2,3.8-9.6,9-9.8s9.6,3.8,9.8,9c0,0.1,0,0.3,0,0.4
		C357.1,300.4,353.1,304.6,348,304.8z M348,287c-4.6-0.2-8.6,3.4-8.8,8s3.4,8.6,8,8.8s8.6-3.4,8.8-8c0-0.1,0-0.3,0-0.4
		C356.1,290.9,352.5,287.1,348,287z"/>
	<path class="st4" d="M353.8,295.4c-0.1,3.2-2.8,5.7-6,5.6s-5.7-2.8-5.6-6c0.1-3.1,2.7-5.6,5.8-5.6
		C351.3,289.4,353.9,292.1,353.8,295.4z"/>
	<path class="st2" d="M348,301.9c-3.6,0.1-6.6-2.7-6.7-6.3c-0.1-3.6,2.7-6.6,6.3-6.7c3.6-0.1,6.6,2.7,6.7,6.3c0,0.1,0,0.2,0,0.2
		C354.3,298.9,351.5,301.8,348,301.9z M348,289.9c-3-0.1-5.6,2.2-5.8,5.3c-0.1,3,2.2,5.6,5.3,5.8c3,0.1,5.6-2.2,5.8-5.3
		c0-0.1,0-0.2,0-0.2C353.4,292.4,351,289.9,348,289.9L348,289.9L348,289.9z"/>
	<path class="st2" d="M346.6,297.5L346.6,297.5c-0.6,0-1-0.4-1-1c1.6-35.7,15.2-75.7,15.3-76.1c0.2-0.5,0.8-0.8,1.3-0.6
		s0.8,0.8,0.6,1.3c-0.1,0.4-13.6,40.1-15.2,75.6C347.5,297.1,347.1,297.5,346.6,297.5z"/>
	
		<rect x="353.5" y="272.8" transform="matrix(0.6817 -0.7316 0.7316 0.6817 -83.9819 353.6053)" class="st2" width="21.9" height="1"/>
	<path class="st2" d="M413.3,242.5l-0.9-0.4c0.8-1.5,1.4-3,1.6-4.7l1,0.1C414.8,239.2,414.2,240.9,413.3,242.5z"/>
	<path class="st2" d="M372.1,292.9l-0.7-0.7c8.2-8.6,22.3-23.4,25.1-26.5c5-6.1,9.6-12.6,13.6-19.4l0.9,0.5
		c-4.1,6.9-8.7,13.4-13.8,19.6C394.5,269.5,380.3,284.3,372.1,292.9z"/>
	
		<rect x="364.4" y="296.6" transform="matrix(0.6913 -0.7226 0.7226 0.6913 -101.2878 357.193)" class="st2" width="5.9" height="1"/>
	<path class="st8" d="M401.8,221.6c0,0-3.4-8-3.7-11.3s-0.3-14.9-0.3-14.9c-19.4-1.5-41.3,16.8-41.3,16.8L362,225l0.3,1.7
		c-0.3,6.6,0.5,13.2,2.4,19.6c3.6,12.1,9.2,17.9,9.2,17.9s17.3-16.3,26-28.4C404.3,229.6,401.8,221.6,401.8,221.6z"/>
	<path class="st2" d="M373.9,264.8l-0.3-0.4c-0.2-0.2-5.7-6-9.3-18.1c-1.9-6.4-2.7-13.1-2.4-19.8l-0.2-1.5l-5.7-13.1l0.3-0.2
		c0.2-0.2,22.3-18.4,41.6-16.9h0.5v0.5c0,0.1,0,11.7,0.3,14.9s3.6,11,3.6,11.1l0,0c0.1,0.3,2.5,8.4-2,14.6
		c-8.6,12-25.9,28.3-26.1,28.4L373.9,264.8z M357.1,212.3l5.4,12.6l0.3,1.7c-0.3,6.6,0.5,13.2,2.4,19.5c3,10.2,7.5,15.9,8.7,17.3
		c2.6-2.4,17.7-17,25.6-27.9c4.1-5.7,2-13.3,1.8-13.7s-3.4-8.2-3.7-11.4c-0.3-2.9-0.3-12.3-0.3-14.5
		C379.6,194.7,359.7,210.2,357.1,212.3L357.1,212.3z"/>
	<path class="st2" d="M385.9,220.7c0,0-9.8,10.3-12.7,13.8s-8.7,9.7-8.7,9.7c-1-4.1-1.7-8.2-2-12.4c0-3.3,0.3-6.7,1-9.9L385.9,220.7
		z"/>
	<path class="st2" d="M364.2,245.1l-0.2-0.9c-1-4.1-1.7-8.3-2-12.5c-0.1-3.4,0.3-6.8,1-10.1l0.1-0.4l24.1-1.1l-0.9,0.9
		c-0.1,0.1-9.8,10.3-12.7,13.7s-8.7,9.6-8.7,9.7L364.2,245.1z M363.9,222.2c-0.6,3.1-0.9,6.3-0.9,9.4c0.2,3.8,0.8,7.7,1.8,11.4
		c1.6-1.7,5.7-6.2,8-9s9.5-10.3,11.9-12.9L363.9,222.2z"/>
	<path class="st2" d="M323.7,335.8c-0.6-8.8-1.9-25.8-2.5-27.8c-1-2.9,0-42.4,2.8-56.5l1,0.2c-2.8,14.4-3.6,53.7-2.8,56
		c0.9,2.6,2.5,27,2.6,28.1L323.7,335.8z"/>
	<path class="st2" d="M351.3,133.3c0,0-8.6,12.5-11,15.9s-6.1,2.3-5.4,8s5.3,16.2,11.2,17.9c3.7,1,7.6,1.1,11.3,0.1
		c0,0,32.7,13.6,34.9,16.6s4.3,10.4,4.3,10.4s8.4-0.6,11.2-1.6c2.3-1.1,4.5-2.4,6.5-4.1l-2.8-1.2c0,0,5.2-2.4,5.8-2.9
		c1-0.6,2-1.2,3-1.7l-4.6-5.6l-1-6c0,0,2.2-10.1,3.4-17.5s-0.7-17-6-21.6s-26.6-14.4-37.8-14.1S352.8,132.2,351.3,133.3z"/>
	<path class="st2" d="M396.2,202.8l-0.1-0.4c0-0.1-2.1-7.4-4.2-10.2c-1.5-2.1-21.4-10.9-34.5-16.4c-3.7,0.9-7.7,0.9-11.4-0.2
		c-6.4-1.9-10.9-12.9-11.5-18.4c-0.5-4,1.1-5,2.8-6.1c1-0.6,2-1.4,2.6-2.3c2.4-3.4,11-15.9,11-15.9l0.1-0.1c2-1.6,12.5-7.1,23.2-7.4
		c11.2-0.3,32.7,9.5,38.2,14.3c5.6,4.9,7.4,14.8,6.2,22.1c-1.2,7-3.2,16.4-3.4,17.4l1,5.8l4.9,6l-0.5,0.3c-0.6,0.3-2.5,1.3-2.9,1.6
		s-3.3,1.7-4.9,2.5l2.5,1.1l-0.6,0.5c-2,1.7-4.3,3.1-6.7,4.2c-2.8,1-11,1.6-11.3,1.6L396.2,202.8z M357.4,174.8l0.2,0.1
		c3.4,1.4,32.9,13.8,35.1,16.8c1.9,2.7,3.8,8.6,4.2,10.2c1.7-0.1,8.3-0.7,10.6-1.5c2-0.9,4-2.1,5.7-3.5l-3-1.3l1-0.5
		c2-0.9,5.3-2.5,5.7-2.8c0.8-0.5,1.7-1,2.5-1.5l-4.3-5.3l-1-6.2v-0.1c0-0.1,2.2-10.1,3.4-17.4c1.1-6.8-0.5-16.5-5.8-21.1
		s-26.5-14.4-37.5-14s-21.1,6.1-22.6,7.1c-0.7,1-8.7,12.6-10.9,15.9c-0.8,1.1-1.8,2-3,2.6c-1.6,1-2.8,1.7-2.4,5.1
		c0.7,5.9,5.3,15.9,10.8,17.5c3.6,1,7.4,1,11,0.1L357.4,174.8z"/>
	<path class="st7" d="M391.3,217.5c0,0-14.5,12.7-21.8,12.4s-15.6-16.2-16.7-18.8s-5.1-14-5.3-16.9s-1.7-20.1-1.4-22.5
		s8.5-15.7,8.5-15.7s3.8,8.7,7.8,13s12.5,6.3,12.5,6.3L373,171c0,0,7.2,5.1,10.9,5.5s8.2,1.1,8.2,1.1s3.6,5.6,4.5,6.5
		s3.6-0.2,3.6-0.2s5.4-5.6,8.5-4.1s0.5,11.2-1.8,15.3s-7.1,7.3-7.1,7.3l-2.2,0.6c0,0-2.3,7.6-3.5,9.8"/>
	<path class="st7" d="M369.8,230.4h-0.3c-7.6-0.4-16.2-16.6-17.2-19.1s-5.1-13.9-5.4-17.1c0-0.5-0.1-1.6-0.2-2.9
		c-0.5-6.2-1.4-17.7-1.1-19.7c0.4-2.5,7.7-14.5,8.6-15.8l0.5-0.8l0.4,0.9c0,0.1,3.8,8.7,7.6,12.9c3.1,3.4,9,5.3,11.3,5.9l-1.9-5
		l1.4,1c0.1,0.1,7.1,5.1,10.7,5.4s8.2,1.1,8.2,1.1h0.2l0.1,0.2c1,1.5,3.7,5.7,4.4,6.4c0.4,0.4,2,0.1,2.9-0.3c0.7-0.7,5.8-5.7,9-4.1
		c0.7,0.4,1.2,1.1,1.4,1.9c1.1,3.4-1,10.7-3,14.2c-2.3,4.2-7.1,7.4-7.3,7.5l-0.1,0l-1.9,0.5c-1,3.3-2.1,6.5-3.4,9.6l-0.9-0.5
		c1.3-3.2,2.5-6.4,3.4-9.7l0.1-0.3l2.4-0.6c0.6-0.4,4.8-3.4,6.9-7.1c1.8-3.3,3.9-10.3,2.9-13.4c-0.1-0.5-0.4-1-0.9-1.3
		c-2.3-1.2-6.5,2.5-7.9,4l-0.2,0.1c-0.5,0.2-3,1.3-4.1,0.1c-0.9-0.9-3.8-5.4-4.5-6.4c-1-0.1-4.8-0.7-8-1c-2.8-0.3-7.5-3.2-9.8-4.7
		l1.4,3.7l-0.9-0.2c-0.4-0.1-8.7-2-12.7-6.5c-3.3-3.6-6.4-10-7.5-12.3c-2.5,4.1-7.7,12.9-7.9,14.6c-0.3,1.9,0.7,13.8,1.2,19.5
		c0.1,1.3,0.2,2.4,0.2,2.9c0.2,2.8,4.1,13.9,5.3,16.8c1,2.2,9.3,18.1,16.3,18.5s21.3-12.1,21.4-12.2l0.7,0.8
		C391,218.4,377.2,230.4,369.8,230.4z"/>
	<path class="st2" d="M364.1,206.4c-0.9,0.1-1.7-0.3-2.2-1c-1.2-1.9-0.7-5-0.6-5.2l1,0.2c0,0-0.5,2.9,0.5,4.5
		c0.7,1.1,3.6,0.2,4.6-0.2l0.3-0.1l0.2,0.1c0.6,0.3,1.4,0.3,2,0c0.5-0.2,0.7-0.7,0.5-1.2c0,0,0-0.1-0.1-0.1l0.9-0.4
		c0.5,1,0.1,2.1-0.8,2.6h-0.1c-0.9,0.4-1.9,0.4-2.8,0C366.4,206,365.3,206.3,364.1,206.4z"/>
	<path class="st2" d="M368.5,213.3c-0.3,0-0.6,0-0.9,0c-4.8-0.5-6.3-2.4-6.3-2.4l0.8-0.6c0,0,1.4,1.6,5.6,2.1s9.9-3.3,9.9-3.3
		l0.6,0.8C378,210,373,213.3,368.5,213.3z"/>
	<path class="st2" d="M360.7,181.2c-1.7-1-3.7-1.5-5.7-1.5c-3.1,0.2-4.1,0.8-4.2,0.8l-0.5-0.8c0.1-0.1,1.2-0.8,4.6-0.9
		c2.2-0.1,4.4,0.5,6.3,1.6L360.7,181.2z"/>
	<path class="st2" d="M387.5,183.9c-1.8-1.1-3.9-1.8-6-1.9c-3.4-0.1-6.8,0.2-10.2,0.6l-0.1-1c3.4-0.5,6.9-0.7,10.4-0.6
		c2.3,0.2,4.5,0.9,6.5,2.1L387.5,183.9z"/>
	<path class="st2" d="M399.4,194.9l-0.5-0.9c0.8-0.5,2.2-1.6,2.4-2.4s-0.6-1.9-1-2.2l-0.3-0.3l0.2-0.3c0.1-0.2,2.8-5,5.1-6.1
		c0.6-0.3,1.3-0.3,1.9-0.1c1.4,0.6,2,2.7,2,2.8l-1,0.3c-0.2-0.9-0.7-1.6-1.5-2.1c-0.3-0.1-0.7-0.1-1,0.1c-1.6,0.8-3.6,3.9-4.5,5.4
		c0.8,0.8,1.1,1.8,1,2.9C401.8,193.4,399.6,194.8,399.4,194.9z"/>
	<path class="st2" d="M400.9,189.6l-0.5-0.9c0.2-0.1,4-2.3,6-0.7l-0.6,0.8C404.5,187.8,401.8,189,400.9,189.6z"/>
	<path class="st2" d="M357.5,188.9c0,1.7-0.8,3.1-1.9,3.2s-2-1.3-2.1-2.9s0.8-3.1,1.9-3.2S357.5,187.2,357.5,188.9z"/>
	<path class="st2" d="M377.5,191c-0.1,1.7-1,3.1-2.1,3.1s-1.9-1.4-1.9-3.1s1-3.1,2.1-3.1S377.6,189.3,377.5,191z"/>
	<polygon class="st2" points="362.8,197.4 361.8,197.3 362.1,189 361.1,183.4 362.1,183.3 363.1,188.9 	"/>
	<path class="st2" d="M398.9,280c-0.1,0-0.2,0-0.4,0c-0.8-0.2-1.3-1-1.1-1.8c0-0.1,1.7-7,3.5-15.8c0.2-0.8,1-1.3,1.8-1.1
		c0.8,0.2,1.2,0.9,1.1,1.7c-1.9,8.7-3.5,15.7-3.6,15.8C400.2,279.5,399.6,280,398.9,280z"/>
	<path class="st2" d="M402.5,263.8h-0.2c-0.5-0.1-0.9-0.6-0.8-1.2l0,0c4.2-19.4,6.2-31.9,5.6-35c-1.2-6.3-5.7-7.4-5.8-7.4
		c-0.6-0.1-0.9-0.7-0.8-1.2s0.7-0.9,1.2-0.8c0.2,0.1,5.9,1.4,7.4,9c0.7,3.5-1.2,15.6-5.6,35.9C403.4,263.5,402.9,263.8,402.5,263.8z
		"/>
	<path class="st4" d="M382.1,344h-0.2c-2.2-0.4-4.2-1.3-5.9-2.8c-0.6-0.6-0.7-1.5-0.1-2.1s1.5-0.7,2.1-0.1c1.3,1.1,2.8,1.8,4.4,2.1
		c0.8,0.1,1.5,0.8,1.4,1.6C383.7,343.5,383,344.1,382.1,344L382.1,344z"/>
	<path class="st2" d="M382.1,344.5h-0.3c-2.3-0.4-4.4-1.4-6.2-2.9c-0.8-0.8-0.7-2.1,0.1-2.8c0.7-0.7,1.8-0.7,2.6-0.2
		c1.2,1,2.6,1.7,4.1,2c0.5,0.1,1,0.4,1.3,0.8s0.5,1,0.4,1.5C383.9,343.8,383.1,344.5,382.1,344.5z M376.9,339.1c-0.6,0-1,0.4-1,1
		c0,0.3,0.1,0.6,0.4,0.8c1.6,1.4,3.6,2.3,5.7,2.7c0.5,0.1,1.1-0.3,1.1-0.8l0,0c0-0.3,0-0.5-0.2-0.7s-0.4-0.4-0.6-0.4
		c-1.7-0.3-3.3-1.1-4.7-2.2C377.4,339.2,377.2,339.1,376.9,339.1L376.9,339.1z"/>
	<path class="st4" d="M376.9,341.1c-0.2,0-0.5-0.1-0.6-0.2c-2.3-2-4.7-5.7-3.4-12.2c2-10,9.1-34.9,9.1-35.1c0.1-0.5,0.7-0.9,1.2-0.8
		s0.9,0.7,0.8,1.2v0.1c-0.1,0.3-7.1,25.1-9.1,35c-0.9,4.5,0,7.9,2.7,10.3c0.4,0.4,0.5,1,0.1,1.4
		C377.5,340.9,377.2,341.1,376.9,341.1L376.9,341.1z"/>
	<path class="st2" d="M376.9,341.6c-0.4,0-0.7-0.1-1-0.4c-2.4-2-4.9-5.9-3.5-12.7c2-9.5,8.4-32.5,9.1-35.1c0.2-0.8,1-1.3,1.8-1.2
		c0.8,0.2,1.3,1,1.2,1.8c0,0.1,0,0.1-0.1,0.2c-0.1,0.2-7.1,25.1-9.1,35c-0.9,4.3,0,7.6,2.5,9.8c0.3,0.3,0.5,0.6,0.5,1
		s-0.1,0.8-0.4,1.1C377.8,341.4,377.4,341.6,376.9,341.6z M383,293.3c-0.2,0-0.4,0.1-0.5,0.4c-0.7,2.6-7.2,25.6-9.1,35.1
		c-1.3,6.3,1,9.8,3.2,11.7c0.2,0.2,0.5,0.2,0.6,0l0.1-0.1c0.1-0.1,0.1-0.2,0.1-0.4c0-0.1-0.1-0.3-0.2-0.3c-2.9-2.5-3.8-6.1-2.9-10.7
		c2-9.9,9-34.8,9.1-35c0.1-0.3-0.1-0.5-0.4-0.6L383,293.3z"/>
	<path class="st4" d="M383.6,340.8c-2.3-0.1-4.5-0.6-6.6-1.5c-0.8-0.3-1.1-1.2-0.8-1.9c0.3-0.8,1.2-1.1,1.9-0.8
		c1.8,0.8,3.8,1.2,5.8,1.2c0.8,0,1.5,0.6,1.5,1.5c0,0.8-0.6,1.5-1.4,1.5L383.6,340.8z"/>
	<path class="st2" d="M383.6,341.3c-2.3-0.1-4.6-0.6-6.8-1.5c-1-0.5-1.4-1.7-1-2.7c0.4-0.9,1.5-1.4,2.5-1.1c1.8,0.8,3.7,1.2,5.6,1.2
		c0.5,0,1,0.2,1.4,0.5c0.8,0.7,0.9,2,0.1,2.8c-0.4,0.4-0.9,0.6-1.4,0.6L383.6,341.3z M377.5,337c-0.4,0-0.8,0.2-0.9,0.6
		c-0.1,0.2-0.1,0.5,0,0.8c0.1,0.2,0.3,0.4,0.5,0.5c2.1,0.9,4.5,1.4,6.8,1.4c0.6,0,1-0.4,1-1c0-0.3-0.1-0.5-0.3-0.7
		c-0.2-0.2-0.4-0.3-0.7-0.3c-2.1,0-4.1-0.4-6-1.3C377.8,337,377.7,337,377.5,337z"/>
	<path class="st4" d="M383.9,340.3c-0.6,0-1-0.4-1-1s0.4-1,1-1c3.5-0.1,6-2.3,7.5-6.6c2.9-8.3,10.4-35,10.5-35.2
		c0.1-0.5,0.6-0.9,1.2-0.8c0.5,0.1,0.9,0.6,0.8,1.2c0,0.1,0,0.1,0,0.2c-0.1,0.3-7.5,27-10.5,35.4
		C391.5,337.5,388.4,340.2,383.9,340.3L383.9,340.3z"/>
	<path class="st2" d="M383.9,340.8c-0.8,0-1.5-0.6-1.5-1.4c0-0.4,0.1-0.8,0.4-1.1c0.3-0.3,0.7-0.5,1-0.5c3.3-0.1,5.6-2.2,7-6.3
		c2.9-8.2,10.1-34.1,10.5-35.2c0.1-0.4,0.4-0.7,0.7-0.9c0.7-0.4,1.6-0.1,2,0.6c0.2,0.3,0.2,0.8,0.1,1.1c-0.3,1.1-7.6,27.1-10.5,35.4
		C391.8,337.9,388.6,340.7,383.9,340.8L383.9,340.8z M402.8,296.3c-0.1,0-0.2,0-0.2,0.1c-0.1,0.1-0.2,0.2-0.2,0.3
		c-0.3,1.1-7.6,27.1-10.5,35.3c-1.6,4.5-4.2,6.8-7.9,6.9c-0.1,0-0.3,0.1-0.4,0.2s-0.1,0.2-0.1,0.4c0,0.3,0.2,0.5,0.5,0.5l0,0
		c4.2-0.1,7.1-2.7,8.9-7.6c2.9-8.2,10.2-34.2,10.5-35.3c0.1-0.3-0.1-0.5-0.3-0.6L402.8,296.3z"/>
	<path class="st2" d="M401.5,303c-0.1,0-0.3,0-0.4,0c-0.8-0.2-1.3-1-1.1-1.8c2-7.7,3.5-16.9,2.7-18.4c-0.7-1-3.5-2.5-6.6-2.9
		c-2.1-0.3-3.9,0-4.8,0.7c-2.1,1.8-5.7,10.6-7.5,15.8c-0.3,0.8-1.1,1.2-1.9,0.9c-0.8-0.3-1.2-1.1-0.9-1.9l0,0c0.5-1.4,5-14.1,8.4-17
		c1.5-1.3,4.1-1.8,7.1-1.4s7.2,1.9,8.7,4.2c2,3-1,15.5-2.3,20.8C402.7,302.6,402.1,303,401.5,303z"/>
	<path class="st7" d="M247,302.1c0,0-12.1-3-14.5-3.8s-9.5-6.1-10.7-4s0,7.1,2.6,8.7s10.9,4.6,10.9,4.6s6.7,11.7,8.9,13.1
		s9.1,1,9.1,1"/>
	<path class="st2" d="M251.1,322.2c-2.3,0-5.7-0.2-7.2-1.1c-2.2-1.4-7.9-11.4-8.9-13.1c-1.2-0.5-8.4-3.1-10.8-4.6
		c-2.9-1.8-4.1-7.1-2.8-9.4c1.1-1.8,4.6,0.2,8,2.1c1,0.6,2.1,1.2,3.2,1.7c2.4,0.8,14.4,3.8,14.5,3.8l-0.2,1
		c-0.5-0.1-12.2-3-14.6-3.8c-1.2-0.5-2.3-1.1-3.4-1.8c-2.1-1.2-6.1-3.5-6.7-2.5c-1.1,1.8,0.1,6.6,2.5,8c2.6,1.6,10.7,4.6,10.8,4.6
		l0.2,0.1l0.1,0.2c1.8,3.2,7,11.9,8.7,13s6.9,1,8.8,0.9l0.1,1C253.2,322.2,252.3,322.2,251.1,322.2z"/>
	<path class="st2" d="M133.8,329.8l16.6-2.7l-9.4-15.8C141,311.3,132.1,323.1,133.8,329.8z"/>
	<path class="st2" d="M133.4,330.3l-0.1-0.4c-1.7-6.8,6.9-18.4,7.3-18.9l0.4-0.6l10.1,17.1L133.4,330.3z M141,312.2
		c-1.7,2.4-7.7,11.5-6.8,17l15.4-2.5L141,312.2z"/>
	<path class="st6" d="M183.5,307.2l16.7,33.7c0,0,22.7,7.5,33.6,11.2s35,13.1,40.3,13.6c4.4,0.3,8.7,0.3,13.1,0
		c0,0,10.4-9.6,11.5-10.1c2.7-1,5.4-1.8,8.3-2.1c2.7-0.3,12-3.2,12-3.2s5.1-4.5,5.9-1.1s-2.7,6.4-4.3,7.5s-5.9,2.4-7.2,2.9
		c0,0,11.8,1.1,12.5,1.1s11.2-2.4,11.2-2.4s10.7-5.7,12-4.4s0.4,2.8-0.9,4c-1,1-1.8,2.1-2.6,3.3c-1.4,3.2-3.1,6.2-5.1,9
		c-3.5,4.8-12.5,12.7-13.4,13.2s-16.5,3.5-33.3,4s-43.6,1.3-53.3,0.9s-37.5-4.4-46.5-6.1s-16.5-1.8-18-5s-7.5-10.7-14.7-21.1
		s-17.3-29.8-18-31.8c-1.1-2.3-2.4-4.5-3.9-6.6c0,0,7.2-12.5,17.8-16S183.5,307.2,183.5,307.2z"/>
	<path class="st2" d="M247.6,389c-2.8,0-5.2,0-7.1-0.1c-9.8-0.4-37.7-4.5-46.6-6.1c-2.2-0.4-4.3-0.7-6.3-1
		c-6.3-0.9-10.9-1.6-12.1-4.2c-0.8-1.8-3.1-4.9-6.4-9.4c-2.3-3.3-5.3-7.3-8.3-11.7c-7.1-10.4-17.3-29.8-18.1-31.9
		c-1.1-2.3-2.4-4.4-3.8-6.5l-0.2-0.3l0.1-0.3c0.3-0.5,7.4-12.7,18.1-16.2s25.9,5,26.5,5.3l0.1,0.1l0.1,0.1l16.6,33.5
		c2.3,0.8,23.2,7.6,33.4,11.1c3.3,1.1,7.7,2.7,12.4,4.4c10.8,3.9,24.2,8.8,27.9,9.2c4.3,0.3,8.6,0.3,12.8,0
		c1.5-1.4,10.4-9.6,11.5-10.1c2.7-1,5.6-1.8,8.4-2.2c2.4-0.2,10.8-2.8,11.8-3.1c0.6-0.5,3.5-2.9,5.3-2.3c0.7,0.3,1.2,0.9,1.3,1.6
		c1,4.1-3.6,7.4-4.5,8c-1.7,0.9-3.4,1.7-5.2,2.2c3.9,0.4,9.7,0.9,10.3,0.9s7-1.5,11-2.4c3.3-1.8,11.1-5.6,12.5-4.3s1,2.9-0.9,4.8
		c-0.9,1-1.8,2.1-2.5,3.2c-1.4,3.2-3.1,6.2-5.2,9c-3.5,4.9-12.6,12.8-13.6,13.4s-16.6,3.5-33.5,4.1C285.8,388.3,261.8,389,247.6,389
		z M140.1,317.9c1.4,2,2.7,4.2,3.7,6.5c0.8,2.1,10.9,21.4,18,31.7c3,4.5,5.9,8.5,8.3,11.7c3.3,4.5,5.6,7.7,6.5,9.5
		c1,2.1,5.6,2.8,11.3,3.7c2,0.3,4.1,0.6,6.3,1c8.8,1.6,36.6,5.7,46.4,6.1c11,0.4,43.5-0.6,53.3-0.9c17-0.6,32.1-3.5,33-4
		s9.9-8.5,13.3-13.1c2-2.8,3.7-5.7,5.1-8.9c0.8-1.2,1.7-2.4,2.7-3.5c1.9-1.9,1.5-2.8,0.9-3.3s-5.9,1.6-11.4,4.5h-0.1
		c-1.7,0.4-10.5,2.4-11.3,2.4s-12.1-1-12.6-1.1l-2.1-0.2l1.9-0.8c0.4-0.1,0.9-0.3,1.6-0.6c1.9-0.6,3.8-1.4,5.6-2.3
		c0.8-0.5,4.9-3.5,4.1-7c-0.2-0.7-0.5-0.8-0.6-0.9c-1-0.3-3.3,1.2-4.4,2.2l-0.2,0.1c-0.4,0.1-9.4,3-12.1,3.2
		c-2.8,0.4-5.5,1.1-8.1,2.1c-0.7,0.4-7.4,6.4-11.4,10.1l-0.1,0.1h-0.2c-4.4,0.3-8.8,0.3-13.2,0c-3.8-0.4-16.7-5.1-28.1-9.2
		c-4.7-1.7-9.1-3.3-12.3-4.4c-10.8-3.7-33.4-11.1-33.6-11.2l-0.2-0.1l-16.8-33.7c-1.5-0.8-15.8-8.4-25.6-5.2
		C148,305.5,141.2,316.1,140.1,317.9z"/>
	<path class="st2" d="M322.7,373.5l-0.4-0.9c2.7-0.7,5.4-1.2,8.1-1.5c0.9-0.1,1.6-0.2,1.8-0.3c0.8-0.2,3.4-1.9,5.2-3.5
		s8.8-7.6,8.9-7.7l0.6,0.8c-0.1,0.1-7.1,6.1-8.9,7.6s-4.5,3.5-5.7,3.7l-1.9,0.3C327.9,372.3,325.3,372.8,322.7,373.5z"/>
	<path class="st2" d="M325.1,378.5l-0.4-0.9l9-3.6c0.4-0.3,2.8-2,3.6-2.6s4.4-3.4,4.4-3.4l0.6,0.8c0,0-3.6,2.8-4.4,3.4
		s-3.6,2.6-3.6,2.6l-0.1,0.1L325.1,378.5z"/>
	<path class="st0" d="M241.5,354.9c-2.9-1-5.5-2-7.6-2.7c-10.9-3.7-33.6-11.2-33.6-11.2l-9.5-19.1c-23.2-0.5-33.5,12.5-37.6,21
		c2.8,4.8,5.7,9.8,8.3,13.5c7.2,10.5,13.2,18,14.7,21.1s9,3.3,18,5c7.9,1.5,30.5,4.8,42.4,5.8c-2-3.6-4.8-10.8-2.3-18.5
		C235.9,364.5,238.3,359.4,241.5,354.9z"/>
	<path class="st2" d="M237.3,388.8l-0.9-0.1c-11.9-1-34.6-4.4-42.4-5.8c-2.2-0.4-4.3-0.7-6.3-1c-6.3-0.9-10.9-1.6-12.1-4.2
		c-0.8-1.8-3.1-4.9-6.4-9.4c-2.3-3.3-5.3-7.3-8.3-11.7c-2.3-3.4-5.1-8-8.3-13.6l-0.1-0.2l0.1-0.2c4-8.2,14.3-21.8,38.1-21.3h0.3
		l9.5,19.2c2.3,0.8,23.2,7.6,33.4,11.1c1.9,0.6,4.2,1.5,7.6,2.7l0.6,0.2l-0.4,0.5c-3.1,4.5-5.6,9.5-7.3,14.7
		c-2.5,7.5,0.4,14.6,2.3,18.1L237.3,388.8z M153.6,342.8c3.1,5.5,5.9,9.9,8.2,13.3c3,4.5,5.9,8.5,8.3,11.7c3.3,4.5,5.6,7.7,6.5,9.5
		c1,2.1,5.6,2.8,11.3,3.7c2,0.3,4.1,0.6,6.3,1c7.6,1.4,29.3,4.6,41.4,5.7c-1.9-3.9-4.3-10.7-1.9-18.1c1.7-5.1,4.1-10,7.1-14.4
		c-3.1-1.1-5.3-1.9-7-2.5c-10.8-3.7-33.4-11.1-33.6-11.2l-0.2-0.1l-9.4-19C167.6,321.9,157.6,334.8,153.6,342.8L153.6,342.8z"/>
	<path class="st2" d="M179.7,367.9l-0.9-0.3c2.4-7.4,8.2-20.6,19.2-25.4l0.4,0.9C187.7,347.8,182.1,360.7,179.7,367.9z"/>
	<path class="st2" d="M177.9,374.5l-1-0.2c0,0,0.2-1.1,0.6-2.7l1,0.3C178.1,373.5,177.9,374.5,177.9,374.5z"/>
	<path class="st2" d="M188.4,332.8l-0.3-1c1.7-0.5,3.5-0.8,5.3-0.9l0.1,1C191.7,332,190,332.3,188.4,332.8z"/>
	<path class="st2" d="M164.4,357l-0.9-0.4c0.1-0.2,6.3-15.5,18.8-22.4l0.5,0.9C170.6,341.9,164.5,356.9,164.4,357z"/>
	<path class="st2" d="M201.7,381.5c-2.5-16,11-34.2,11.1-34.3l0.8,0.6c-0.1,0.2-13.3,18-10.9,33.6L201.7,381.5z"/>
	<path class="st2" d="M220.4,384.2c-0.3-2.3-0.5-4.5-0.4-6.8h1c-0.1,2.2,0.1,4.4,0.4,6.6L220.4,384.2z"/>
	<path class="st2" d="M221.3,373l-1-0.1c1.1-7.6,4.2-14.8,8.9-20.8l0.8,0.7C225.4,358.6,222.4,365.6,221.3,373z"/>
	<path class="st4" d="M126.5,266.3c0,0-6.8,17.8-5.9,23.1s11.3,35,11.6,36.1c0.5,1.4,1.1,2.9,1.7,4.2c0,0,13.3-18.9,26-21.7
		c7.8-1.7,15.8-2,23.7-0.8l-6.2-14.1c-0.1-3.5-0.4-7-0.8-10.5c-0.6-2.5-10.4-13.5-16.9-15.2"/>
	<path class="st2" d="M133.7,330.8l-0.4-0.8c-0.6-1.4-1.2-2.9-1.7-4.3c-0.1-0.3-0.8-2.4-1.7-5.1c-3.2-9.4-9.2-26.9-9.8-31
		c-0.9-5.4,5.7-22.7,6-23.4l0.9,0.4c-0.1,0.2-6.7,17.7-5.9,22.9c0.6,4,6.8,22.1,9.8,30.9c1.1,3.3,1.7,4.9,1.8,5.2
		c0.4,1.1,0.8,2.3,1.3,3.4c2.6-3.5,14.3-18.7,25.8-21.2c7.6-1.6,15.3-2,23-1l-5.9-13.5c-0.1-3.5-0.4-6.9-0.8-10.4
		c-0.5-2.2-10.2-13.2-16.6-14.9l0.3-1c6.7,1.8,16.7,12.8,17.3,15.6c0.5,3.5,0.8,6.9,0.9,10.4l6.6,14.9l-0.9-0.2
		c-7.8-1.1-15.8-0.8-23.5,0.8c-12.4,2.8-25.5,21.4-25.7,21.5L133.7,330.8z"/>
	<path class="st2" d="M172.4,287.9c0,0-1.3-1.2-3-2.7l0.7-0.8c1.7,1.5,3,2.8,3,2.8L172.4,287.9z"/>
	<path class="st2" d="M167,283.1c-3.5-3-4.7-3.6-5.1-3.7c-1.6-0.4-6.9,1.6-8.8,2.4l-0.4-0.9c0.7-0.3,7.2-3,9.4-2.4
		c0.3,0.1,1.3,0.3,5.5,3.9L167,283.1z"/>
	<path class="st7" d="M317.1,385.4c0,0-11.1-3.2-14.9-4.7s-11.1-5.5-13.2-6.4s-13.2,0-14.5,0s-6.8-1.3-7.9-0.2s0.6,3.6,1.9,4.5
		s9.6,2.4,9.6,2.4l7.3,2.6l-14.3,2.1l-13.4,2.6c0.4,0.9,1.2,1.7,2.1,2.1c1.7,0.9,8.3,1.9,8.3,1.9s16.4,6.4,20.5,7
		c3.2,0.5,11.3,1.1,14.7,1.3c1,0.1,2,0,3.1-0.1c4.4-0.5,17.4-2,25.1-3.4c9.4-1.7,41-7.9,47.5-9.6c24.6-6.7,49.7-24.7,50.8-25.3
		c1.8-1.3,3.5-2.9,4.9-4.7c0.4-0.9,2.6-3.8,2.6-3.8L402,340.4l-2.7,1.9c0,0-25.3,13.5-35.9,20.1s-31.5,19.2-32.8,19.8
		S317.1,385.4,317.1,385.4z"/>
	<path class="st2" d="M304.5,401.1c-0.4,0-0.8,0-1.2,0c-3.4-0.2-11.6-0.8-14.8-1.3c-4-0.6-19.4-6.6-20.5-7c-0.7-0.1-6.7-1.1-8.4-2
		c-1.1-0.5-1.9-1.3-2.4-2.4l-0.2-0.5l14-2.7l12.3-1.8l-5.3-1.9c-0.8-0.1-8.4-1.5-9.7-2.4c-1.3-0.9-2.2-2.2-2.5-3.8
		c-0.1-0.5,0.1-1.1,0.5-1.5c0.9-0.9,3.3-0.6,6.4-0.1c0.6,0.1,1.2,0.2,1.8,0.2c0.3,0,1,0,1.9-0.1c5.7-0.3,11.2-0.5,12.8,0.1
		c0.9,0.4,2.7,1.3,4.7,2.3c2.8,1.4,6.3,3.2,8.5,4.1c3.6,1.4,13.5,4.3,14.8,4.6c4.9-1,12.3-2.7,13.2-3.1c1.2-0.6,21.8-13,32.8-19.8
		c10.5-6.5,35.7-20,36-20.1l2.8-2l36,13.5l-0.4,0.5c-0.6,0.8-2.2,3.1-2.5,3.8c-1.5,1.9-3.2,3.5-5.1,4.9l-0.7,0.5
		c-17.7,12-35.5,20.9-50.1,24.9c-6.6,1.8-38.4,8-47.5,9.6c-7.8,1.4-21.2,3-25.1,3.4C305.8,401.1,305.1,401.1,304.5,401.1z
		 M258.5,388.5c0.4,0.6,1,1,1.6,1.3c1.6,0.8,8.1,1.9,8.2,1.9h0.1c0.2,0.1,16.4,6.4,20.4,7c3.2,0.5,11.3,1.1,14.7,1.3
		c1,0.1,2,0,3-0.1c3.9-0.4,17.3-2,25.1-3.4c9.1-1.6,40.9-7.8,47.4-9.6c14.5-4,32.2-12.7,49.9-24.7l0.8-0.5c1.8-1.3,3.3-2.8,4.7-4.5
		c0.3-0.7,1.6-2.5,2.2-3.4L402.1,341l-2.5,1.7c-0.3,0.2-25.4,13.6-36,20.1c-10.3,6.4-31.5,19.2-32.9,19.9s-12.3,3-13.5,3.2h-0.1H317
		c-0.5-0.1-11.2-3.2-15-4.7c-2.3-0.9-5.6-2.6-8.6-4.1c-2-1-3.8-1.9-4.6-2.3c-1.6-0.6-9.1-0.2-12.4,0c-1,0-1.7,0.1-2,0.1
		c-0.7,0-1.3-0.1-2-0.2c-1.6-0.2-5-0.7-5.6-0.1c-0.2,0.2-0.2,0.4-0.2,0.7c0.3,1.2,1,2.3,2,3c0.9,0.6,6.2,1.7,9.4,2.3l9.2,3.2
		l-16.3,2.4L258.5,388.5z"/>
	<path class="st0" d="M417.2,267.5l-8.8,47.9l-5.7,7.1l-3.3,19.9c0,0,15,7.7,24.7,9.7s24.3,1.3,24.3,1.3l5.1-25.6l0.7-15.7
		c0,0,6.4-56.9,6-59.1s-19.6-10.1-23.4-11.3c-2-0.6-4-1-6-1.3"/>
	<path class="st2" d="M442.7,353.9c-5.2,0-12.8-0.2-18.7-1.4c-9.7-2-24.7-9.7-24.8-9.8l-0.3-0.2l3.4-20.4l5.7-7.1l8.8-47.8l1,0.2
		l-8.9,48l-5.7,7.1l-3.3,19.4c2.2,1.1,15.5,7.7,24.3,9.5s21.4,1.4,23.8,1.3l5-25.2l0.6-15.6c2.6-22.9,6.3-57.4,6-59
		c-0.5-1.9-18.6-9.6-23-10.9c-1.9-0.6-3.9-1-5.9-1.3l0.1-1c2.1,0.3,4.1,0.7,6,1.3c2.5,0.8,23.2,8.9,23.7,11.6
		c0.5,2.2-5.3,53.5-6,59.3l-0.7,15.6l-5.2,26.1h-0.4C448.3,353.8,446,353.9,442.7,353.9z"/>
	<path class="st2" d="M419,311.4l-0.4-0.9c6.5-3.1,17.9-8.8,21.1-11.4l0.6,0.8C437.2,302.4,427,307.5,419,311.4z"/>
	<path class="st2" d="M412.4,314.5l-0.4-0.9c0,0,1.4-0.6,3.6-1.7l0.4,0.9L412.4,314.5z"/>
	<path class="st2" d="M431,301.6l-0.5-0.8c6.3-4.1,16.8-15.9,16.9-16l0.8,0.7C447.6,286,437.3,297.5,431,301.6z"/>
</g>
<g id="freepik--table-1--inject-21">
	<path class="st2" d="M730.3,440.9H12.1c-0.3,0-0.5-0.2-0.5-0.5s0.2-0.5,0.5-0.5h718.2c0.3,0,0.5,0.2,0.5,0.5
		S730.5,440.9,730.3,440.9z"/>
</g>
</svg>
